<svg xmlns="http://www.w3.org/2000/svg" xmlns:xlink="http://www.w3.org/1999/xlink" viewBox="0 0 253.08 81.86"><defs><style>.cls-1,.cls-19,.cls-9{fill:none;}.cls-1{clip-rule:evenodd;}.cls-2{font-size:10.2px;fill:#868685;font-family:Montserrat-Medium, Montserrat;font-weight:500;}.cls-3{letter-spacing:0.02em;}.cls-4{letter-spacing:0.05em;}.cls-5{letter-spacing:0.29em;}.cls-6{letter-spacing:0.29em;}.cls-7{letter-spacing:0.04em;}.cls-8{letter-spacing:0.01em;}.cls-9{font-size:38.54px;font-family:UnivaNova-SemiBold, Univa Nova;font-weight:600;}.cls-10{letter-spacing:-0.08em;}.cls-11{letter-spacing:-0.05em;}.cls-100,.cls-101,.cls-102,.cls-103,.cls-104,.cls-105,.cls-106,.cls-107,.cls-108,.cls-109,.cls-110,.cls-111,.cls-112,.cls-113,.cls-114,.cls-115,.cls-116,.cls-117,.cls-118,.cls-119,.cls-12,.cls-120,.cls-121,.cls-122,.cls-123,.cls-124,.cls-125,.cls-126,.cls-127,.cls-128,.cls-129,.cls-13,.cls-130,.cls-131,.cls-132,.cls-133,.cls-134,.cls-135,.cls-136,.cls-137,.cls-138,.cls-139,.cls-14,.cls-140,.cls-141,.cls-142,.cls-143,.cls-144,.cls-145,.cls-146,.cls-147,.cls-148,.cls-149,.cls-15,.cls-150,.cls-151,.cls-152,.cls-153,.cls-154,.cls-155,.cls-156,.cls-157,.cls-158,.cls-159,.cls-16,.cls-160,.cls-161,.cls-162,.cls-163,.cls-164,.cls-165,.cls-166,.cls-167,.cls-168,.cls-169,.cls-17,.cls-170,.cls-171,.cls-172,.cls-173,.cls-18,.cls-20,.cls-23,.cls-24,.cls-25,.cls-26,.cls-27,.cls-28,.cls-29,.cls-30,.cls-31,.cls-32,.cls-33,.cls-34,.cls-35,.cls-36,.cls-37,.cls-38,.cls-39,.cls-40,.cls-41,.cls-42,.cls-43,.cls-44,.cls-45,.cls-46,.cls-47,.cls-48,.cls-49,.cls-50,.cls-51,.cls-52,.cls-53,.cls-54,.cls-55,.cls-56,.cls-57,.cls-58,.cls-59,.cls-60,.cls-61,.cls-62,.cls-63,.cls-64,.cls-65,.cls-66,.cls-67,.cls-68,.cls-69,.cls-70,.cls-71,.cls-72,.cls-73,.cls-74,.cls-75,.cls-76,.cls-77,.cls-78,.cls-79,.cls-80,.cls-81,.cls-82,.cls-83,.cls-84,.cls-85,.cls-86,.cls-87,.cls-88,.cls-89,.cls-90,.cls-91,.cls-92,.cls-93,.cls-94,.cls-95,.cls-96,.cls-97,.cls-98,.cls-99{fill-rule:evenodd;}.cls-12{fill:url(#GradientFill_1);}.cls-13{fill:url(#GradientFill_1-2);}.cls-14{fill:url(#GradientFill_1-3);}.cls-15{fill:url(#GradientFill_1-4);}.cls-16{fill:url(#GradientFill_1-5);}.cls-17{fill:url(#GradientFill_1-6);}.cls-18{fill:url(#GradientFill_1-7);}.cls-19{stroke:#004d6d;stroke-miterlimit:22.93;stroke-width:1.36px;}.cls-20{fill:#fff;}.cls-21{clip-path:url(#clip-path);}.cls-22{fill:#9f4d97;}.cls-23{fill:#804896;}.cls-24{fill:#4c3188;}.cls-25{fill:url(#GradientFill_2);}.cls-26{fill:url(#GradientFill_3);}.cls-27{fill:url(#GradientFill_4);}.cls-28{fill:url(#GradientFill_5);}.cls-29{fill:url(#GradientFill_6);}.cls-30{fill:url(#GradientFill_7);}.cls-31{fill:url(#GradientFill_8);}.cls-32{fill:url(#GradientFill_9);}.cls-33{fill:url(#GradientFill_10);}.cls-34{fill:url(#GradientFill_11);}.cls-35{fill:url(#GradientFill_12);}.cls-36{fill:url(#GradientFill_13);}.cls-37{fill:url(#GradientFill_11-2);}.cls-38{fill:url(#GradientFill_12-2);}.cls-39{fill:#003e64;}.cls-40{fill:#004d6d;}.cls-41{fill:#004f73;}.cls-42{fill:#00426e;}.cls-43{fill:#006788;}.cls-44{fill:#0084ad;}.cls-45{fill:#008fbd;}.cls-46{fill:#006a8d;}.cls-47{fill:#00a5bf;}.cls-48{fill:#007490;}.cls-49{fill:url(#GradientFill_14);}.cls-50{fill:url(#GradientFill_15);}.cls-51{fill:url(#GradientFill_16);}.cls-52{fill:url(#GradientFill_16-2);}.cls-53{fill:url(#GradientFill_17);}.cls-54{fill:url(#GradientFill_18);}.cls-55{fill:url(#GradientFill_17-2);}.cls-56{fill:url(#GradientFill_19);}.cls-57{fill:url(#GradientFill_20);}.cls-58{fill:#007897;}.cls-59{fill:#008fb0;}.cls-60{fill:#004862;}.cls-61{fill:#007696;}.cls-62{fill:#003d60;}.cls-63{fill:#00516d;}.cls-64{fill:url(#GradientFill_24);}.cls-65{fill:url(#GradientFill_22);}.cls-66{fill:url(#GradientFill_23);}.cls-67{fill:#00526e;}.cls-68{fill:#0090b2;}.cls-69{fill:#00365b;}.cls-70{fill:#007294;}.cls-71{fill:url(#GradientFill_24-2);}.cls-72{fill:#6dc5d7;}.cls-73{fill:#8ad0e4;}.cls-74{fill:#005578;}.cls-75{fill:#004c64;}.cls-76{fill:url(#GradientFill_25);}.cls-77{fill:#cc7fb3;}.cls-78{fill:url(#GradientFill_18-2);}.cls-79{fill:url(#GradientFill_16-3);}.cls-80{fill:url(#GradientFill_16-4);}.cls-81{fill:url(#GradientFill_2-2);}.cls-82{fill:url(#GradientFill_3-2);}.cls-83{fill:url(#GradientFill_4-2);}.cls-84{fill:url(#GradientFill_5-2);}.cls-85{fill:url(#GradientFill_6-2);}.cls-86{fill:url(#GradientFill_7-2);}.cls-87{fill:url(#GradientFill_8-2);}.cls-88{fill:url(#GradientFill_9-2);}.cls-89{fill:url(#GradientFill_10-2);}.cls-90{fill:url(#GradientFill_11-3);}.cls-91{fill:url(#GradientFill_12-3);}.cls-92{fill:url(#GradientFill_13-2);}.cls-93{fill:url(#GradientFill_11-4);}.cls-94{fill:url(#GradientFill_12-4);}.cls-95{fill:url(#GradientFill_14-2);}.cls-96{fill:url(#GradientFill_15-2);}.cls-97{fill:url(#GradientFill_16-5);}.cls-98{fill:url(#GradientFill_16-6);}.cls-99{fill:url(#GradientFill_17-3);}.cls-100{fill:url(#GradientFill_18-3);}.cls-101{fill:url(#GradientFill_17-4);}.cls-102{fill:url(#GradientFill_19-2);}.cls-103{fill:url(#GradientFill_20-2);}.cls-104{fill:url(#GradientFill_24-3);}.cls-105{fill:url(#GradientFill_22-2);}.cls-106{fill:url(#GradientFill_23-2);}.cls-107{fill:url(#GradientFill_24-4);}.cls-108{fill:url(#GradientFill_25-2);}.cls-109{fill:url(#GradientFill_18-4);}.cls-110{fill:url(#GradientFill_16-7);}.cls-111{fill:url(#GradientFill_16-8);}.cls-112{fill:url(#GradientFill_2-3);}.cls-113{fill:url(#GradientFill_3-3);}.cls-114{fill:url(#GradientFill_4-3);}.cls-115{fill:url(#GradientFill_5-3);}.cls-116{fill:url(#GradientFill_6-3);}.cls-117{fill:url(#GradientFill_7-3);}.cls-118{fill:url(#GradientFill_8-3);}.cls-119{fill:url(#GradientFill_9-3);}.cls-120{fill:url(#GradientFill_10-3);}.cls-121{fill:url(#GradientFill_11-5);}.cls-122{fill:url(#GradientFill_12-5);}.cls-123{fill:url(#GradientFill_13-3);}.cls-124{fill:url(#GradientFill_11-6);}.cls-125{fill:url(#GradientFill_12-6);}.cls-126{fill:url(#GradientFill_14-3);}.cls-127{fill:url(#GradientFill_15-3);}.cls-128{fill:url(#GradientFill_16-9);}.cls-129{fill:url(#GradientFill_16-10);}.cls-130{fill:url(#GradientFill_17-5);}.cls-131{fill:url(#GradientFill_18-5);}.cls-132{fill:url(#GradientFill_17-6);}.cls-133{fill:url(#GradientFill_19-3);}.cls-134{fill:url(#GradientFill_20-3);}.cls-135{fill:url(#GradientFill_24-5);}.cls-136{fill:url(#GradientFill_22-3);}.cls-137{fill:url(#GradientFill_23-3);}.cls-138{fill:url(#GradientFill_24-6);}.cls-139{fill:url(#GradientFill_25-3);}.cls-140{fill:url(#GradientFill_18-6);}.cls-141{fill:url(#GradientFill_16-11);}.cls-142{fill:url(#GradientFill_16-12);}.cls-143{fill:url(#GradientFill_2-4);}.cls-144{fill:url(#GradientFill_3-4);}.cls-145{fill:url(#GradientFill_4-4);}.cls-146{fill:url(#GradientFill_5-4);}.cls-147{fill:url(#GradientFill_6-4);}.cls-148{fill:url(#GradientFill_7-4);}.cls-149{fill:url(#GradientFill_8-4);}.cls-150{fill:url(#GradientFill_9-4);}.cls-151{fill:url(#GradientFill_10-4);}.cls-152{fill:url(#GradientFill_11-7);}.cls-153{fill:url(#GradientFill_12-7);}.cls-154{fill:url(#GradientFill_13-4);}.cls-155{fill:url(#GradientFill_11-8);}.cls-156{fill:url(#GradientFill_12-8);}.cls-157{fill:url(#GradientFill_14-4);}.cls-158{fill:url(#GradientFill_15-4);}.cls-159{fill:url(#GradientFill_16-13);}.cls-160{fill:url(#GradientFill_16-14);}.cls-161{fill:url(#GradientFill_17-7);}.cls-162{fill:url(#GradientFill_18-7);}.cls-163{fill:url(#GradientFill_17-8);}.cls-164{fill:url(#GradientFill_19-4);}.cls-165{fill:url(#GradientFill_20-4);}.cls-166{fill:url(#GradientFill_24-7);}.cls-167{fill:url(#GradientFill_22-4);}.cls-168{fill:url(#GradientFill_23-4);}.cls-169{fill:url(#GradientFill_24-8);}.cls-170{fill:url(#GradientFill_25-4);}.cls-171{fill:url(#GradientFill_18-8);}.cls-172{fill:url(#GradientFill_16-15);}.cls-173{fill:url(#GradientFill_16-16);}</style><linearGradient id="GradientFill_1" x1="125.22" y1="23.43" x2="230.45" y2="23.43" gradientUnits="userSpaceOnUse"><stop offset="0" stop-color="#1a1a18"/><stop offset="1" stop-color="#868685"/></linearGradient><linearGradient id="GradientFill_1-2" x1="125.22" y1="27.23" x2="230.46" y2="27.23" xlink:href="#GradientFill_1"/><linearGradient id="GradientFill_1-3" x1="125.22" y1="27.01" x2="230.46" y2="27.01" xlink:href="#GradientFill_1"/><linearGradient id="GradientFill_1-4" x1="125.22" y1="27.23" x2="230.46" y2="27.23" xlink:href="#GradientFill_1"/><linearGradient id="GradientFill_1-5" x1="125.22" y1="23.43" x2="230.46" y2="23.43" xlink:href="#GradientFill_1"/><linearGradient id="GradientFill_1-6" x1="125.22" y1="27.01" x2="230.45" y2="27.01" xlink:href="#GradientFill_1"/><linearGradient id="GradientFill_1-7" x1="125.22" y1="23.66" x2="230.45" y2="23.66" xlink:href="#GradientFill_1"/><clipPath id="clip-path" transform="translate(5.8 8.78)"><path class="cls-1" d="M11.59,52.71H19V11.23h-7.4V52.71Zm19.56,0h7.4V38.19h-7.4V52.71Zm0-25.7h7.4V11.23h-7.4V27Zm20.11,25.7h7.4V11.23h-7.4Z"/></clipPath><linearGradient id="GradientFill_2" x1="35.09" y1="15.3" x2="35.09" y2="26.34" gradientUnits="userSpaceOnUse"><stop offset="0" stop-color="#006b84"/><stop offset="1" stop-color="#013b68"/></linearGradient><linearGradient id="GradientFill_3" x1="52.18" y1="27.21" x2="60.98" y2="18.43" gradientUnits="userSpaceOnUse"><stop offset="0" stop-color="#0091b4"/><stop offset="1" stop-color="#804896"/></linearGradient><linearGradient id="GradientFill_4" x1="38.2" y1="23.61" x2="29.07" y2="15.45" gradientUnits="userSpaceOnUse"><stop offset="0" stop-color="#6dc5d7"/><stop offset="1" stop-color="#804896"/></linearGradient><linearGradient id="GradientFill_5" x1="38.71" y1="23.35" x2="30.09" y2="15.12" gradientUnits="userSpaceOnUse"><stop offset="0" stop-color="#007d9d"/><stop offset="1" stop-color="#4c3188"/></linearGradient><linearGradient id="GradientFill_6" x1="39.68" y1="22.91" x2="30.71" y2="14.9" gradientUnits="userSpaceOnUse"><stop offset="0" stop-color="#6dc5d7"/><stop offset="1" stop-color="#cc7fb3"/></linearGradient><linearGradient id="GradientFill_7" x1="52.93" y1="15.52" x2="43.56" y2="23.41" gradientUnits="userSpaceOnUse"><stop offset="0" stop-color="#80549c"/><stop offset="1" stop-color="#6fc0d5"/></linearGradient><linearGradient id="GradientFill_8" x1="42.7" y1="22.83" x2="52.29" y2="15.53" gradientUnits="userSpaceOnUse"><stop offset="0" stop-color="#0084a8"/><stop offset="1" stop-color="#4c3188"/></linearGradient><linearGradient id="GradientFill_9" x1="51.58" y1="15.17" x2="42.03" y2="22.63" gradientUnits="userSpaceOnUse"><stop offset="0" stop-color="#c886b8"/><stop offset="1" stop-color="#76c4d7"/></linearGradient><linearGradient id="GradientFill_10" x1="32.19" y1="27.58" x2="37.86" y2="22.29" gradientUnits="userSpaceOnUse"><stop offset="0" stop-color="#0090b7"/><stop offset="1" stop-color="#00afda"/></linearGradient><linearGradient id="GradientFill_11" x1="31.82" y1="27.9" x2="39.62" y2="22.94" gradientUnits="userSpaceOnUse"><stop offset="0" stop-color="#004863"/><stop offset="1" stop-color="#005e76"/></linearGradient><linearGradient id="GradientFill_12" x1="33.62" y1="29.29" x2="39.39" y2="22.6" gradientUnits="userSpaceOnUse"><stop offset="0" stop-color="#004864"/><stop offset="1" stop-color="#005c75"/></linearGradient><linearGradient id="GradientFill_13" x1="44.55" y1="24" x2="49.09" y2="25.86" gradientUnits="userSpaceOnUse"><stop offset="0" stop-color="#00a8c3"/><stop offset="1" stop-color="#0091b3"/></linearGradient><linearGradient id="GradientFill_11-2" x1="43.85" y1="26.88" x2="48.3" y2="24.05" xlink:href="#GradientFill_11"/><linearGradient id="GradientFill_12-2" x1="44.29" y1="27.08" x2="46.24" y2="24.82" xlink:href="#GradientFill_12"/><linearGradient id="GradientFill_14" x1="25.04" y1="14.38" x2="34.66" y2="27.07" gradientUnits="userSpaceOnUse"><stop offset="0" stop-color="#6c3a8d"/><stop offset="1" stop-color="#00a0c4"/></linearGradient><linearGradient id="GradientFill_15" x1="33.16" y1="4.49" x2="37.28" y2="10.21" gradientUnits="userSpaceOnUse"><stop offset="0" stop-color="#4c3188"/><stop offset="1" stop-color="#00aaca"/></linearGradient><linearGradient id="GradientFill_16" x1="78.57" y1="-7.81" x2="44.13" y2="21.89" gradientUnits="userSpaceOnUse"><stop offset="0" stop-color="#e9bad7"/><stop offset="0.53" stop-color="#b7599d"/><stop offset="1" stop-color="#2b2b83"/></linearGradient><linearGradient id="GradientFill_16-2" x1="2.89" y1="-3.45" x2="37.96" y2="17.46" xlink:href="#GradientFill_16"/><linearGradient id="GradientFill_17" x1="47.63" y1="24.41" x2="37.19" y2="26.8" gradientUnits="userSpaceOnUse"><stop offset="0" stop-color="#007b9b"/><stop offset="1" stop-color="#005578"/></linearGradient><linearGradient id="GradientFill_18" x1="14.49" y1="47.93" x2="7.93" y2="-9.18" gradientUnits="userSpaceOnUse"><stop offset="0" stop-color="#cb80b4"/><stop offset="1" stop-color="#e9bad7"/></linearGradient><linearGradient id="GradientFill_17-2" x1="26.4" y1="21.77" x2="30.1" y2="29.04" xlink:href="#GradientFill_17"/><linearGradient id="GradientFill_19" x1="60.81" y1="16.61" x2="44.13" y2="26.48" gradientUnits="userSpaceOnUse"><stop offset="0" stop-color="#7a3f90"/><stop offset="1" stop-color="#00a0c4"/></linearGradient><linearGradient id="GradientFill_20" x1="59.69" y1="9.97" x2="46.57" y2="20.2" gradientUnits="userSpaceOnUse"><stop offset="0" stop-color="#dea4ca"/><stop offset="1" stop-color="#00aaca"/></linearGradient><linearGradient id="GradientFill_24" x1="50.8" y1="26.16" x2="61.48" y2="19.28" gradientUnits="userSpaceOnUse"><stop offset="0" stop-color="#00789a"/><stop offset="1" stop-color="#4c3188"/></linearGradient><linearGradient id="GradientFill_22" x1="28.14" y1="28.03" x2="22.48" y2="17.8" gradientUnits="userSpaceOnUse"><stop offset="0" stop-color="#0090b1"/><stop offset="1" stop-color="#804896"/></linearGradient><linearGradient id="GradientFill_23" x1="13.36" y1="8.8" x2="21.94" y2="20.69" gradientUnits="userSpaceOnUse"><stop offset="0" stop-color="#da9dc6"/><stop offset="1" stop-color="#00aaca"/></linearGradient><linearGradient id="GradientFill_24-2" x1="29.37" y1="27.58" x2="22.19" y2="17.87" xlink:href="#GradientFill_24"/><linearGradient id="GradientFill_25" x1="41.55" y1="21.48" x2="40.44" y2="22.35" gradientUnits="userSpaceOnUse"><stop offset="0" stop-color="#7ec2d7"/><stop offset="1" stop-color="#fff"/></linearGradient><linearGradient id="GradientFill_18-2" x1="21.65" y1="44.48" x2="86.57" y2="1.59" xlink:href="#GradientFill_18"/><linearGradient id="GradientFill_16-3" x1="70.98" y1="-12.39" x2="53.22" y2="12.61" xlink:href="#GradientFill_16"/><linearGradient id="GradientFill_16-4" x1="-5.63" y1="-5.57" x2="19.66" y2="9.51" xlink:href="#GradientFill_16"/><linearGradient id="GradientFill_2-2" x1="35.09" y1="48.58" x2="35.09" y2="37.54" xlink:href="#GradientFill_2"/><linearGradient id="GradientFill_3-2" x1="52.18" y1="54.23" x2="60.98" y2="63" xlink:href="#GradientFill_3"/><linearGradient id="GradientFill_4-2" x1="38.2" y1="57.82" x2="29.07" y2="65.99" xlink:href="#GradientFill_4"/><linearGradient id="GradientFill_5-2" x1="38.71" y1="58.08" x2="30.09" y2="66.32" xlink:href="#GradientFill_5"/><linearGradient id="GradientFill_6-2" x1="39.68" y1="58.52" x2="30.71" y2="66.54" xlink:href="#GradientFill_6"/><linearGradient id="GradientFill_7-2" x1="52.93" y1="65.92" x2="43.56" y2="58.02" xlink:href="#GradientFill_7"/><linearGradient id="GradientFill_8-2" x1="42.7" y1="58.61" x2="52.29" y2="65.9" xlink:href="#GradientFill_8"/><linearGradient id="GradientFill_9-2" x1="51.58" y1="66.27" x2="42.03" y2="58.8" xlink:href="#GradientFill_9"/><linearGradient id="GradientFill_10-2" x1="32.19" y1="53.86" x2="37.86" y2="59.14" xlink:href="#GradientFill_10"/><linearGradient id="GradientFill_11-3" x1="31.82" y1="53.53" x2="39.62" y2="58.5" xlink:href="#GradientFill_11"/><linearGradient id="GradientFill_12-3" x1="33.62" y1="52.14" x2="39.39" y2="58.83" xlink:href="#GradientFill_12"/><linearGradient id="GradientFill_13-2" x1="44.55" y1="57.43" x2="49.09" y2="55.58" xlink:href="#GradientFill_13"/><linearGradient id="GradientFill_11-4" x1="43.85" y1="54.55" x2="48.3" y2="57.38" xlink:href="#GradientFill_11"/><linearGradient id="GradientFill_12-4" x1="44.29" y1="54.36" x2="46.24" y2="56.62" xlink:href="#GradientFill_12"/><linearGradient id="GradientFill_14-2" x1="25.04" y1="67.06" x2="34.66" y2="54.37" xlink:href="#GradientFill_14"/><linearGradient id="GradientFill_15-2" x1="33.16" y1="59.39" x2="37.28" y2="53.67" xlink:href="#GradientFill_15"/><linearGradient id="GradientFill_16-5" x1="78.57" y1="89.25" x2="44.13" y2="59.54" xlink:href="#GradientFill_16"/><linearGradient id="GradientFill_16-6" x1="2.89" y1="84.88" x2="37.96" y2="63.97" xlink:href="#GradientFill_16"/><linearGradient id="GradientFill_17-3" x1="47.63" y1="39.48" x2="37.19" y2="37.08" xlink:href="#GradientFill_17"/><linearGradient id="GradientFill_18-3" x1="14.49" y1="33.5" x2="7.93" y2="90.62" xlink:href="#GradientFill_18"/><linearGradient id="GradientFill_17-4" x1="26.4" y1="42.11" x2="30.1" y2="34.84" xlink:href="#GradientFill_17"/><linearGradient id="GradientFill_19-2" x1="60.81" y1="64.82" x2="44.13" y2="54.96" xlink:href="#GradientFill_19"/><linearGradient id="GradientFill_20-2" x1="59.69" y1="53.91" x2="46.57" y2="43.68" xlink:href="#GradientFill_20"/><linearGradient id="GradientFill_24-3" x1="50.8" y1="55.28" x2="61.48" y2="62.16" xlink:href="#GradientFill_24"/><linearGradient id="GradientFill_22-2" x1="28.14" y1="53.41" x2="22.48" y2="63.63" xlink:href="#GradientFill_22"/><linearGradient id="GradientFill_23-2" x1="13.36" y1="55.08" x2="21.94" y2="43.2" xlink:href="#GradientFill_23"/><linearGradient id="GradientFill_24-4" x1="29.37" y1="53.86" x2="22.19" y2="63.56" xlink:href="#GradientFill_24"/><linearGradient id="GradientFill_25-2" x1="41.55" y1="59.95" x2="40.44" y2="59.09" xlink:href="#GradientFill_25"/><linearGradient id="GradientFill_18-4" x1="21.65" y1="36.96" x2="86.57" y2="79.84" xlink:href="#GradientFill_18"/><linearGradient id="GradientFill_16-7" x1="70.98" y1="76.27" x2="53.22" y2="51.27" xlink:href="#GradientFill_16"/><linearGradient id="GradientFill_16-8" x1="-5.63" y1="69.45" x2="19.66" y2="54.37" xlink:href="#GradientFill_16"/><linearGradient id="GradientFill_2-3" x1="47.63" y1="32.19" x2="36.6" y2="32.19" xlink:href="#GradientFill_2"/><linearGradient id="GradientFill_3-3" x1="50.31" y1="29.67" x2="59.08" y2="20.88" xlink:href="#GradientFill_3"/><linearGradient id="GradientFill_4-3" x1="53.9" y1="43.65" x2="62.07" y2="52.79" xlink:href="#GradientFill_4"/><linearGradient id="GradientFill_5-3" x1="54.16" y1="43.15" x2="62.4" y2="51.77" xlink:href="#GradientFill_5"/><linearGradient id="GradientFill_6-3" x1="54.6" y1="42.18" x2="62.62" y2="51.14" xlink:href="#GradientFill_6"/><linearGradient id="GradientFill_7-3" x1="62" y1="28.92" x2="54.1" y2="38.29" xlink:href="#GradientFill_7"/><linearGradient id="GradientFill_8-3" x1="54.69" y1="39.16" x2="61.98" y2="29.57" xlink:href="#GradientFill_8"/><linearGradient id="GradientFill_9-3" x1="62.35" y1="30.28" x2="54.88" y2="39.83" xlink:href="#GradientFill_9"/><linearGradient id="GradientFill_10-3" x1="49.94" y1="49.67" x2="55.22" y2="44" xlink:href="#GradientFill_10"/><linearGradient id="GradientFill_11-5" x1="49.61" y1="50.03" x2="54.58" y2="42.23" xlink:href="#GradientFill_11"/><linearGradient id="GradientFill_12-5" x1="48.22" y1="48.24" x2="54.91" y2="42.47" xlink:href="#GradientFill_12"/><linearGradient id="GradientFill_13-3" x1="53.51" y1="37.3" x2="51.66" y2="32.77" xlink:href="#GradientFill_13"/><linearGradient id="GradientFill_11-6" x1="50.63" y1="38.01" x2="53.46" y2="33.56" xlink:href="#GradientFill_11"/><linearGradient id="GradientFill_12-6" x1="50.44" y1="37.57" x2="52.7" y2="35.62" xlink:href="#GradientFill_12"/><linearGradient id="GradientFill_14-3" x1="63.14" y1="56.82" x2="50.45" y2="47.2" xlink:href="#GradientFill_14"/><linearGradient id="GradientFill_15-3" x1="58.45" y1="34.13" x2="52.72" y2="30" xlink:href="#GradientFill_15"/><linearGradient id="GradientFill_16-9" x1="85.33" y1="3.28" x2="55.62" y2="37.73" xlink:href="#GradientFill_16"/><linearGradient id="GradientFill_16-10" x1="80.96" y1="78.96" x2="60.05" y2="43.9" xlink:href="#GradientFill_16"/><linearGradient id="GradientFill_17-5" x1="38.53" y1="19.64" x2="36.14" y2="30.09" xlink:href="#GradientFill_17"/><linearGradient id="GradientFill_18-5" x1="29.58" y1="67.36" x2="86.7" y2="73.93" xlink:href="#GradientFill_18"/><linearGradient id="GradientFill_17-6" x1="41.16" y1="40.88" x2="33.9" y2="37.18" xlink:href="#GradientFill_17"/><linearGradient id="GradientFill_19-3" x1="60.91" y1="21.05" x2="51.04" y2="37.73" xlink:href="#GradientFill_19"/><linearGradient id="GradientFill_20-3" x1="52.97" y1="7.59" x2="42.73" y2="20.71" xlink:href="#GradientFill_20"/><linearGradient id="GradientFill_24-5" x1="51.36" y1="31.06" x2="58.24" y2="20.38" xlink:href="#GradientFill_24"/><linearGradient id="GradientFill_22-3" x1="49.49" y1="53.72" x2="59.71" y2="59.38" xlink:href="#GradientFill_22"/><linearGradient id="GradientFill_23-3" x1="54.14" y1="53.92" x2="42.25" y2="45.34" xlink:href="#GradientFill_23"/><linearGradient id="GradientFill_24-6" x1="49.94" y1="52.48" x2="59.64" y2="59.66" xlink:href="#GradientFill_24"/><linearGradient id="GradientFill_25-3" x1="56.04" y1="40.31" x2="55.17" y2="41.41" xlink:href="#GradientFill_25"/><linearGradient id="GradientFill_18-6" x1="33.04" y1="60.21" x2="75.92" y2="-4.71" xlink:href="#GradientFill_18"/><linearGradient id="GradientFill_16-11" x1="75.33" y1="-3.7" x2="50.33" y2="14.06" xlink:href="#GradientFill_16"/><linearGradient id="GradientFill_16-12" x1="68.51" y1="72.91" x2="53.43" y2="47.62" xlink:href="#GradientFill_16"/><linearGradient id="GradientFill_2-4" x1="22.1" y1="32.19" x2="33.13" y2="32.19" xlink:href="#GradientFill_2"/><linearGradient id="GradientFill_3-4" x1="31.03" y1="29.67" x2="22.25" y2="20.88" xlink:href="#GradientFill_3"/><linearGradient id="GradientFill_4-4" x1="27.43" y1="43.65" x2="19.26" y2="52.79" xlink:href="#GradientFill_4"/><linearGradient id="GradientFill_5-4" x1="27.17" y1="43.15" x2="18.94" y2="51.77" xlink:href="#GradientFill_5"/><linearGradient id="GradientFill_6-4" x1="26.73" y1="42.18" x2="18.72" y2="51.14" xlink:href="#GradientFill_6"/><linearGradient id="GradientFill_7-4" x1="19.33" y1="28.92" x2="27.23" y2="38.29" xlink:href="#GradientFill_7"/><linearGradient id="GradientFill_8-4" x1="26.65" y1="39.16" x2="19.35" y2="29.57" xlink:href="#GradientFill_8"/><linearGradient id="GradientFill_9-4" x1="18.99" y1="30.28" x2="26.45" y2="39.83" xlink:href="#GradientFill_9"/><linearGradient id="GradientFill_10-4" x1="31.4" y1="49.67" x2="26.11" y2="44" xlink:href="#GradientFill_10"/><linearGradient id="GradientFill_11-7" x1="31.72" y1="50.03" x2="26.76" y2="42.23" xlink:href="#GradientFill_11"/><linearGradient id="GradientFill_12-7" x1="33.11" y1="48.24" x2="26.42" y2="42.47" xlink:href="#GradientFill_12"/><linearGradient id="GradientFill_13-4" x1="27.82" y1="37.3" x2="29.67" y2="32.77" xlink:href="#GradientFill_13"/><linearGradient id="GradientFill_11-8" x1="30.7" y1="38.01" x2="27.87" y2="33.56" xlink:href="#GradientFill_11"/><linearGradient id="GradientFill_12-8" x1="30.9" y1="37.57" x2="28.64" y2="35.62" xlink:href="#GradientFill_12"/><linearGradient id="GradientFill_14-4" x1="18.2" y1="56.82" x2="30.89" y2="47.2" xlink:href="#GradientFill_14"/><linearGradient id="GradientFill_15-4" x1="11.29" y1="34.13" x2="17.01" y2="30" xlink:href="#GradientFill_15"/><linearGradient id="GradientFill_16-13" x1="-4" y1="3.28" x2="25.71" y2="37.73" xlink:href="#GradientFill_16"/><linearGradient id="GradientFill_16-14" x1="0.37" y1="78.96" x2="21.28" y2="43.9" xlink:href="#GradientFill_16"/><linearGradient id="GradientFill_17-7" x1="31.2" y1="19.64" x2="33.59" y2="30.09" xlink:href="#GradientFill_17"/><linearGradient id="GradientFill_18-7" x1="51.75" y1="67.36" x2="-5.36" y2="73.93" xlink:href="#GradientFill_18"/><linearGradient id="GradientFill_17-8" x1="28.57" y1="40.88" x2="35.83" y2="37.18" xlink:href="#GradientFill_17"/><linearGradient id="GradientFill_19-4" x1="20.43" y1="21.05" x2="30.3" y2="37.73" xlink:href="#GradientFill_19"/><linearGradient id="GradientFill_20-4" x1="16.76" y1="7.59" x2="27" y2="20.71" xlink:href="#GradientFill_20"/><linearGradient id="GradientFill_24-7" x1="29.98" y1="31.06" x2="23.1" y2="20.38" xlink:href="#GradientFill_24"/><linearGradient id="GradientFill_22-4" x1="31.84" y1="53.72" x2="21.62" y2="59.38" xlink:href="#GradientFill_22"/><linearGradient id="GradientFill_23-4" x1="15.6" y1="53.92" x2="27.48" y2="45.34" xlink:href="#GradientFill_23"/><linearGradient id="GradientFill_24-8" x1="31.39" y1="52.48" x2="21.69" y2="59.66" xlink:href="#GradientFill_24"/><linearGradient id="GradientFill_25-4" x1="25.3" y1="40.31" x2="26.17" y2="41.41" xlink:href="#GradientFill_25"/><linearGradient id="GradientFill_18-8" x1="48.29" y1="60.21" x2="5.41" y2="-4.71" xlink:href="#GradientFill_18"/><linearGradient id="GradientFill_16-15" x1="-5.6" y1="-3.7" x2="19.4" y2="14.06" xlink:href="#GradientFill_16"/><linearGradient id="GradientFill_16-16" x1="1.22" y1="72.91" x2="16.3" y2="47.62" xlink:href="#GradientFill_16"/></defs><g id="Layer_2" data-name="Layer 2"><g id="Layer_1-2" data-name="Layer 1"><text class="cls-2" transform="translate(94.03 63.69)"><tspan class="cls-3">Y</tspan><tspan class="cls-4" x="6.77" y="0">OU</tspan><tspan x="24.34" y="0">R</tspan><tspan class="cls-5" x="31.76" y="0"> </tspan><tspan class="cls-4" x="37.43" y="0">ON</tspan><tspan x="55.23" y="0">E</tspan><tspan class="cls-6" x="62.06" y="0"> </tspan><tspan class="cls-4" x="67.74" y="0">DE</tspan><tspan class="cls-7" x="83.94" y="0">S</tspan><tspan class="cls-4" x="90.64" y="0">TIN</tspan><tspan class="cls-8" x="109.49" y="0">A</tspan><tspan class="cls-4" x="117.07" y="0">TIO</tspan><tspan x="136.21" y="0">N</tspan></text><text class="cls-9" transform="translate(94.17 46.72)"><tspan class="cls-10">home</tspan><tspan class="cls-11" x="93.77" y="0">hu</tspan><tspan x="133.81" y="0">b</tspan></text><path class="cls-12" d="M94,37.49H90V9.37h4v8.08a9.61,9.61,0,0,1,2.33-.7,14.77,14.77,0,0,1,2.56-.23,13,13,0,0,1,3.81.52,7,7,0,0,1,2.91,1.8,7.72,7.72,0,0,1,2.22,5.7v13h-4V25.05a5.62,5.62,0,0,0-1.09-3.71A4.8,4.8,0,0,0,98.92,20a7.42,7.42,0,0,0-2.17.28,3.35,3.35,0,0,0-1.55.93,4.21,4.21,0,0,0-.85,1.47A5,5,0,0,0,94,24.41Z" transform="translate(5.8 8.78)"/><path class="cls-13" d="M119.37,37.94a10,10,0,0,1-5.67-1.58,10.27,10.27,0,0,1-3.6-4.07,11,11,0,0,1,0-10.12,10.29,10.29,0,0,1,3.6-4.05,10.85,10.85,0,0,1,11.34,0,10.39,10.39,0,0,1,3.61,4.05,11.06,11.06,0,0,1,0,10.12,10.27,10.27,0,0,1-3.6,4.07,10,10,0,0,1-5.69,1.58Zm0-3.57a6.32,6.32,0,0,0,3.2-.89A5.69,5.69,0,0,0,125,30.84a8.4,8.4,0,0,0,.8-3.63A8.52,8.52,0,0,0,125,23.6,5.66,5.66,0,0,0,122.57,21a6.18,6.18,0,0,0-1.54-.64,6.25,6.25,0,0,0-4.86.64,5.8,5.8,0,0,0-2.4,2.65,8.53,8.53,0,0,0-.82,3.61,8.41,8.41,0,0,0,.81,3.63,5.66,5.66,0,0,0,2.43,2.64A6.17,6.17,0,0,0,119.37,34.37Z" transform="translate(5.8 8.78)"/><path class="cls-14" d="M135,37.49H130.9v-21h4v1a9.51,9.51,0,0,1,4.33-.91,10.1,10.1,0,0,1,3.53.61A7.28,7.28,0,0,1,145.54,19a6.87,6.87,0,0,1,2.75-1.82,10,10,0,0,1,3.56-.61,9.05,9.05,0,0,1,4.58,1.09,7,7,0,0,1,2.79,2.9,8.54,8.54,0,0,1,.93,3.95v13h-4.07V25.05a6.05,6.05,0,0,0-1-3.59,3.79,3.79,0,0,0-3.33-1.38,5.29,5.29,0,0,0-1.48.21A3.17,3.17,0,0,0,148.17,22a7.07,7.07,0,0,0-.61,3V37.49h-4V25.05a6,6,0,0,0-1-3.59,3.88,3.88,0,0,0-3.34-1.38,5.42,5.42,0,0,0-1.49.21,3.18,3.18,0,0,0-2.1,1.76,6.94,6.94,0,0,0-.63,3Z" transform="translate(5.8 8.78)"/><path class="cls-15" d="M172,37.94a10.32,10.32,0,0,1-9.52-5.61,10.92,10.92,0,0,1,0-10.22,10.77,10.77,0,0,1,19,0,11.11,11.11,0,0,1,1.26,5.1,8.86,8.86,0,0,1-.09,1.21l0,.28h-17.2a7.35,7.35,0,0,0,1.1,2.84,6.18,6.18,0,0,0,2.24,2.06,7.12,7.12,0,0,0,6.52,0,6.13,6.13,0,0,0,2.29-2.26,4.66,4.66,0,0,0,.45-.9,3.92,3.92,0,0,0,.16-.36c0-.13.1-.26.17-.42l3.82,1.13a4.54,4.54,0,0,1-.15.44,10.56,10.56,0,0,1-1.06,2.07,10.29,10.29,0,0,1-3.75,3.42A10.67,10.67,0,0,1,172,37.94Zm6.39-12.83a7,7,0,0,0-1.2-2.55A5.94,5.94,0,0,0,175,20.75a7.12,7.12,0,0,0-6,0,6.06,6.06,0,0,0-2.19,1.81,7.28,7.28,0,0,0-1.23,2.55Z" transform="translate(5.8 8.78)"/><path class="cls-16" d="M187.79,37.49h-4V9.37h4v8.08a9.89,9.89,0,0,1,2.33-.7,14.88,14.88,0,0,1,2.57-.23,12.88,12.88,0,0,1,3.8.52,7,7,0,0,1,2.92,1.8,7.75,7.75,0,0,1,2.21,5.7v13h-4V25.05a5.57,5.57,0,0,0-1.09-3.71c-.73-.86-2-1.3-3.8-1.3a7.38,7.38,0,0,0-2.17.28,3.33,3.33,0,0,0-1.56.93,4.55,4.55,0,0,0-.85,1.47,5,5,0,0,0-.32,1.69Z" transform="translate(5.8 8.78)"/><path class="cls-17" d="M212.71,37.49a12.81,12.81,0,0,1-3.83-.52A6.8,6.8,0,0,1,206,35.18a7.78,7.78,0,0,1-2.21-5.72V16.52h4.05V29a5.6,5.6,0,0,0,1.09,3.71Q210,34,212.71,34a4.89,4.89,0,0,0,3.72-1.22,4,4,0,0,0,.83-1.46,5.23,5.23,0,0,0,.32-1.7V16.52h4.06v21h-4.06v-.94a9.27,9.27,0,0,1-2.32.72A14.64,14.64,0,0,1,212.71,37.49Z" transform="translate(5.8 8.78)"/><path class="cls-18" d="M234.25,37.94a10.62,10.62,0,0,1-3.43-.55,10.29,10.29,0,0,1-3-1.57v1.67h-4.05V9.37h4.05v9.26a10.26,10.26,0,0,1,3-1.56,11.12,11.12,0,0,1,3.45-.55,10,10,0,0,1,5.67,1.6,10.39,10.39,0,0,1,3.61,4.05,11.14,11.14,0,0,1,0,10.12,10.22,10.22,0,0,1-3.61,4.07,10,10,0,0,1-5.68,1.58Zm0-3.57a6.32,6.32,0,0,0,3.2-.89,5.75,5.75,0,0,0,2.42-2.64,8.54,8.54,0,0,0,.79-3.63,8.66,8.66,0,0,0-.8-3.61A5.71,5.71,0,0,0,237.45,21a6.62,6.62,0,0,0-3.2-.87,6.34,6.34,0,0,0-3.2.87,5.74,5.74,0,0,0-2.4,2.65,8.49,8.49,0,0,0,0,7.24,5.68,5.68,0,0,0,2.44,2.64A6.12,6.12,0,0,0,234.25,34.37Z" transform="translate(5.8 8.78)"/><rect class="cls-19" x="6.48" y="9.46" width="68.89" height="62.57"/><path class="cls-20" d="M11.59,52.71H19V11.23h-7.4V52.71Zm19.56,0h7.4V38.19h-7.4V52.71Zm0-25.7h7.4V11.23h-7.4V27Zm20.11,25.7h7.4V11.23h-7.4Z" transform="translate(5.8 8.78)"/><g class="cls-21"><rect class="cls-22" x="24.19" y="3.54" width="32.33" height="12.32"/><polygon class="cls-23" points="60.98 18.78 61.51 18.93 81.81 1.08 81.85 1.04 81.81 1.08 60.98 18.78"/><polygon class="cls-24" points="60.66 18.68 60.98 18.78 81.64 1.22 81.85 1.04 81.71 1.12 60.66 18.68"/><path class="cls-25" d="M35.08,15.3l7.67,4.32.24.14L35.44,26l-.35.3q-3.89-3.24-7.78-6.47l-.13-.11C29.81,18.28,32.44,16.77,35.08,15.3Z" transform="translate(5.8 8.78)"/><polygon class="cls-23" points="53.14 16.5 53.95 16.73 81.86 1.04 53.14 16.5"/><polygon class="cls-26" points="60.98 18.78 61.51 18.93 52.3 27.06 51.64 26.73 60.98 18.78"/><polygon class="cls-27" points="28.65 16.5 39.45 22.32 38.56 22.77 27.83 16.74 28.65 16.5"/><polygon class="cls-28" points="29.28 16.32 40.15 21.97 39.44 22.33 28.65 16.5 29.28 16.32"/><polygon class="cls-29" points="30.17 16.05 41.12 21.49 40.16 21.98 29.28 16.32 30.17 16.05"/><polygon class="cls-30" points="53.14 16.5 53.95 16.73 43.44 22.65 42.54 22.2 53.14 16.5"/><polygon class="cls-31" points="52.5 16.31 53.14 16.5 42.54 22.2 41.85 21.86 52.5 16.31"/><polygon class="cls-32" points="51.81 16.11 52.5 16.31 41.85 21.86 41.11 21.49 51.81 16.11"/><polygon class="cls-33" points="38.56 22.77 39.29 23.19 31.46 27.26 30.76 26.68 38.56 22.77"/><polygon class="cls-34" points="39.29 23.19 39.99 23.58 32.13 27.82 31.46 27.26 39.29 23.19"/><polygon class="cls-35" points="39.99 23.58 40.89 24.08 32.99 28.53 32.13 27.82 39.99 23.58"/><polygon class="cls-36" points="43.44 22.65 51.22 26.53 50.31 27.26 42.48 23.18 43.44 22.65"/><polygon class="cls-37" points="42.48 23.18 50.31 27.26 49.64 27.82 41.77 23.58 42.48 23.18"/><polygon class="cls-38" points="41.77 23.58 49.65 27.82 48.8 28.55 40.88 24.08 41.77 23.58"/><polygon class="cls-39" points="49.23 28.77 41.34 35.5 40.88 35.12 48.8 28.53 49.23 28.77"/><polygon class="cls-40" points="49.91 29.15 42.05 36.08 41.34 35.49 49.23 28.77 49.91 29.15"/><polygon class="cls-39" points="32.55 28.77 40.43 35.49 40.89 35.11 32.98 28.53 32.55 28.77"/><polygon class="cls-41" points="40.44 35.49 40.89 35.87 40.18 36.48 39.73 36.08 40.44 35.49"/><polygon class="cls-42" points="40.89 35.11 41.34 35.49 40.89 35.87 40.43 35.49 40.89 35.11"/><polygon class="cls-41" points="41.34 35.49 42.05 36.08 41.6 36.48 40.89 35.87 41.34 35.49"/><polygon class="cls-43" points="40.89 35.87 41.6 36.48 40.89 37.1 40.17 36.48 40.89 35.87"/><polygon class="cls-44" points="35.89 40.12 36.6 40.89 40.89 37.1 40.18 36.48 35.89 40.12"/><polygon class="cls-45" points="45.19 40.87 40.9 37.08 36.78 40.71 36.59 40.88 40.88 45.58 45.19 40.87"/><polygon class="cls-46" points="35.89 40.12 35.45 39.64 39.73 36.08 40.18 36.48 35.89 40.12"/><path class="cls-44" d="M39.45,30.8l.63.55.24-.26-.32.34-.31.35-.25.26-.06.07L39.29,32,39,31.75l-1-.86-.56-.49-.13-.12-.76-.66-.16-.14-.11-.1-.2-.18-.63-.55-.36-.32.42-.37.29-.26c.47.41,1,.82,1.44,1.22l2.2,1.88Zm-2.9-1.18,2.9,1.18Z" transform="translate(5.8 8.78)"/><polygon class="cls-47" points="56.15 28.96 55.32 29.86 51.41 27.83 52.3 27.05 56.15 28.96"/><polygon class="cls-46" points="42.05 36.08 41.6 36.48 45.89 40.13 46.32 39.64 42.05 36.08"/><polygon class="cls-48" points="53.11 28.71 53.74 29.04 54.48 29.43 54.53 29.45 54.82 29.6 55.32 29.86 55.22 29.97 55.21 29.98 55.17 30.02 54.69 30.54 54.16 30.25 53.76 30.04 53.14 29.7 52.77 29.5 52.17 29.18 50.94 28.52 50.91 28.5 50.75 28.41 51.17 28.04 51.41 27.83 51.58 27.92 51.83 28.05 52.53 28.41 52.59 28.44 52.8 28.55 53.11 28.71"/><polygon class="cls-49" points="27.83 16.74 38.56 22.77 30.76 26.68 21.14 18.67 27.83 16.74"/><path class="cls-50" d="M33.43,4.67l1.68-.47L46,7.33h0c-3.56,1.79-7.13,3.6-10.7,5.37C31.65,10.92,28,9.09,24.37,7.28Z" transform="translate(5.8 8.78)"/><polygon class="cls-51" points="80.5 1.43 81.86 1.04 80.57 1.69 51.81 16.12 40.91 12.98 80.5 1.43"/><polygon class="cls-52" points="40.91 12.98 30.17 16.06 0 1.08 40.91 12.98"/><path class="cls-53" d="M36.26,27.29c2.62-2.31,5.22-4.61,7.84-6.9l1.73,1,.93.52,1.33.75v0l-.76.83-.36.38-.94,1-.34.37-.23.25-.28.31-.27.28-.35.38-.26.29-.39.43-1,1.06-.17.19-.38.41-.89,1-.45.48-.34.38-.11.11,0,.05-.08-.06-.12-.1-.42-.36-.85-.7-1.16-1L36.25,27.3Z" transform="translate(5.8 8.78)"/><polygon class="cls-54" points="0 1.08 20.27 18.93 17.22 19.81 0 1.08"/><path class="cls-55" d="M23,22.11l.52-.3.61-.34,1-.57,1-.55L34,27.28l-4.31,3.59-7.57-8.24Z" transform="translate(5.8 8.78)"/><polygon class="cls-56" points="53.95 16.73 60.67 18.69 51.22 26.53 43.44 22.65 53.95 16.73"/><path class="cls-57" d="M55.71,10.15l3,.88-8.42,9.16L46.5,18.28C49.63,15.5,52.57,12.92,55.71,10.15Z" transform="translate(5.8 8.78)"/><polygon class="cls-58" points="54.69 30.54 53.9 31.41 49.9 29.17 50.53 28.6 50.74 28.41 54.69 30.54"/><polygon class="cls-40" points="31.87 29.16 39.73 36.08 40.43 35.49 32.55 28.77 31.87 29.16"/><polygon class="cls-59" points="51.65 26.72 52.3 27.05 51.41 27.83 50.74 27.48 51.65 26.72"/><polygon class="cls-60" points="50.74 27.48 51.41 27.83 50.74 28.41 50.07 28.05 50.74 27.48"/><polygon class="cls-61" points="51.22 26.52 51.65 26.73 50.74 27.48 50.31 27.26 51.22 26.52"/><polygon class="cls-62" points="50.31 27.26 50.74 27.48 50.07 28.05 49.64 27.82 50.31 27.26"/><polygon class="cls-62" points="49.65 27.82 50.08 28.05 49.22 28.77 48.79 28.53 49.65 27.82"/><polygon class="cls-63" points="50.07 28.04 50.75 28.41 49.9 29.16 49.22 28.77 50.07 28.04"/><polygon class="cls-64" points="60.67 18.69 60.98 18.78 51.65 26.73 51.22 26.53 60.67 18.69"/><polygon class="cls-65" points="20.81 18.77 30.35 26.89 29.69 27.23 20.26 18.93 20.81 18.77"/><path class="cls-48" d="M20.66,21.09l.62.67,3.95-2.12-.67-.59Z" transform="translate(5.8 8.78)"/><polygon class="cls-47" points="25.82 29.16 26.46 29.86 30.36 27.83 29.69 27.22 25.82 29.16"/><path class="cls-66" d="M14.46,10.15c3.14,2.77,6.29,5.53,9.42,8.3L20,20.39,11.42,11Z" transform="translate(5.8 8.78)"/><polygon class="cls-58" points="27.09 30.54 27.67 31.18 27.88 31.41 31.87 29.16 31.03 28.41 27.09 30.54"/><polygon class="cls-67" points="31.04 27.48 30.37 27.83 31.03 28.42 31.7 28.05 31.04 27.48"/><polygon class="cls-68" points="30.36 26.89 29.68 27.23 30.37 27.84 31.03 27.48 30.36 26.89"/><polygon class="cls-67" points="31.7 28.05 31.03 28.41 31.87 29.16 32.55 28.78 31.7 28.05"/><polygon class="cls-69" points="31.46 27.26 31.03 27.48 31.7 28.05 32.13 27.82 31.46 27.26"/><polygon class="cls-70" points="30.76 26.68 30.34 26.89 31.03 27.48 31.46 27.26 30.76 26.68"/><polygon class="cls-62" points="32.13 27.82 31.7 28.05 32.55 28.78 32.99 28.53 32.13 27.82"/><polygon class="cls-71" points="21.14 18.67 30.76 26.68 30.36 26.89 20.81 18.77 21.14 18.67"/><polygon class="cls-72" points="38.55 22.77 39.29 23.19 40.17 22.72 39.44 22.32 38.55 22.77"/><polygon class="cls-40" points="39.29 23.19 39.99 23.58 40.88 23.1 40.17 22.72 39.29 23.19"/><polygon class="cls-73" points="39.44 22.33 40.17 22.72 40.88 22.35 40.14 21.97 39.44 22.33"/><polygon class="cls-74" points="40.17 22.72 40.88 23.1 41.59 22.72 40.88 22.35 40.17 22.72"/><polygon class="cls-75" points="39.99 23.58 40.88 24.08 41.77 23.58 40.88 23.1 39.99 23.58"/><polygon class="cls-76" points="41.1 21.49 41.85 21.86 40.88 22.35 40.14 21.97 41.1 21.49"/><polygon class="cls-73" points="40.88 22.35 41.59 22.72 42.55 22.2 41.85 21.86 40.88 22.35"/><polygon class="cls-40" points="40.88 23.1 41.77 23.58 42.48 23.18 41.59 22.72 40.88 23.1"/><polygon class="cls-72" points="41.59 22.72 42.48 23.18 43.44 22.64 42.54 22.2 41.59 22.72"/><polygon class="cls-24" points="52.5 16.31 53.14 16.5 81.85 1.04 52.5 16.31"/><polygon class="cls-77" points="51.81 16.12 52.5 16.32 81.86 1.04 51.81 16.12"/><polygon class="cls-78" points="80.96 1.82 81.86 1.04 81.07 1.86 64.56 19.8 61.51 18.93 80.96 1.82"/><path class="cls-79" d="M74.91-7.09l1.15-.65c-.3.25-.74.58-1,.83C68.29-1.29,61.6,4.27,54.87,9.91L48.15,8C57.11,2.89,66-2.12,74.91-7.09Z" transform="translate(5.8 8.78)"/><polygon class="cls-23" points="28.66 16.5 27.71 16.77 1.37 1.85 0 1.08 28.66 16.5"/><polygon class="cls-24" points="29.28 16.32 28.66 16.5 0.05 1.1 0 1.08 29.28 16.32"/><polygon class="cls-77" points="30.17 16.05 29.28 16.32 0.01 1.08 0 1.08 30.17 16.05"/><path class="cls-80" d="M22,8c-2.23.65-4.46,1.28-6.69,1.94C8.31,4-.39-3.14-5.8-7.7,3.48-2.48,12.69,2.83,22,8Zm0,0Zm0,0Z" transform="translate(5.8 8.78)"/><polygon class="cls-23" points="20.81 18.77 20.27 18.93 0.04 1.11 20.81 18.77"/><polygon class="cls-24" points="21.14 18.67 20.81 18.77 0.17 1.23 0.01 1.08 0.05 1.12 21.14 18.67"/><rect class="cls-22" x="24.19" y="65.58" width="32.33" height="12.32"/><polygon class="cls-23" points="60.98 62.66 61.51 62.51 81.81 80.35 81.85 80.39 81.81 80.36 60.98 62.66"/><polygon class="cls-24" points="60.66 62.75 60.98 62.66 81.64 80.21 81.85 80.39 81.71 80.31 60.66 62.75"/><path class="cls-81" d="M35.08,48.58l7.67-4.32.24-.13-7.55-6.29-.35-.3Q31.21,40.78,27.31,44l-.13.12C29.81,45.61,32.44,47.11,35.08,48.58Z" transform="translate(5.8 8.78)"/><polygon class="cls-23" points="53.14 64.93 53.95 64.71 81.86 80.39 53.14 64.93"/><polygon class="cls-82" points="60.98 62.66 61.51 62.51 52.3 54.38 51.64 54.71 60.98 62.66"/><polygon class="cls-83" points="28.65 64.94 39.45 59.11 38.56 58.66 27.83 64.7 28.65 64.94"/><polygon class="cls-84" points="29.28 65.12 40.15 59.46 39.44 59.11 28.65 64.93 29.28 65.12"/><polygon class="cls-85" points="30.17 65.38 41.12 59.94 40.16 59.46 29.28 65.12 30.17 65.38"/><polygon class="cls-86" points="53.14 64.93 53.95 64.71 43.44 58.78 42.54 59.23 53.14 64.93"/><polygon class="cls-87" points="52.5 65.12 53.14 64.93 42.54 59.23 41.85 59.58 52.5 65.12"/><polygon class="cls-88" points="51.81 65.32 52.5 65.12 41.85 59.58 41.11 59.95 51.81 65.32"/><polygon class="cls-89" points="38.56 58.66 39.29 58.25 31.46 54.18 30.76 54.75 38.56 58.66"/><polygon class="cls-90" points="39.29 58.25 39.99 57.85 32.13 53.62 31.46 54.17 39.29 58.25"/><polygon class="cls-91" points="39.99 57.85 40.89 57.35 32.99 52.9 32.13 53.62 39.99 57.85"/><polygon class="cls-92" points="43.44 58.79 51.22 54.91 50.31 54.18 42.48 58.25 43.44 58.79"/><polygon class="cls-93" points="42.48 58.25 50.31 54.18 49.64 53.62 41.77 57.85 42.48 58.25"/><polygon class="cls-94" points="41.77 57.85 49.65 53.62 48.8 52.89 40.88 57.35 41.77 57.85"/><polygon class="cls-39" points="49.23 52.66 41.34 45.94 40.88 46.31 48.8 52.91 49.23 52.66"/><polygon class="cls-40" points="49.91 52.28 42.05 45.35 41.34 45.94 49.23 52.67 49.91 52.28"/><polygon class="cls-39" points="32.55 52.66 40.43 45.94 40.89 46.32 32.98 52.9 32.55 52.66"/><polygon class="cls-41" points="40.44 45.95 40.89 45.56 40.18 44.96 39.73 45.35 40.44 45.95"/><polygon class="cls-42" points="40.89 46.32 41.34 45.94 40.89 45.56 40.43 45.95 40.89 46.32"/><polygon class="cls-41" points="41.34 45.95 42.05 45.35 41.6 44.96 40.89 45.56 41.34 45.95"/><polygon class="cls-43" points="40.89 45.56 41.6 44.96 40.89 44.33 40.17 44.96 40.89 45.56"/><polygon class="cls-44" points="35.89 41.31 36.6 40.54 40.89 44.33 40.18 44.96 35.89 41.31"/><polygon class="cls-45" points="45.19 40.57 40.9 44.35 36.78 40.72 36.59 40.55 40.88 35.86 45.19 40.57"/><polygon class="cls-46" points="35.89 41.31 35.45 41.79 39.73 45.36 40.18 44.96 35.89 41.31"/><path class="cls-44" d="M39.45,33.08l.63-.54.24.25L40,32.45l-.31-.34-.25-.27-.06-.07-.09.08-.32.28L38,33l-.56.49-.13.12-.76.66-.16.14-.11.1-.2.18-.63.55-.36.33.42.37.29.25c.47-.41,1-.81,1.44-1.22l2.2-1.88Zm-2.9,1.18,2.9-1.18Z" transform="translate(5.8 8.78)"/><polygon class="cls-47" points="56.15 52.47 55.32 51.57 51.41 53.61 52.3 54.38 56.15 52.47"/><polygon class="cls-46" points="42.05 45.36 41.6 44.96 45.89 41.3 46.32 41.8 42.05 45.36"/><polygon class="cls-48" points="53.11 52.72 53.74 52.39 54.48 52.01 54.53 51.98 54.82 51.83 55.32 51.57 55.22 51.47 55.21 51.45 55.17 51.42 54.69 50.9 54.16 51.18 53.76 51.4 53.14 51.73 52.77 51.93 52.17 52.26 50.94 52.92 50.91 52.93 50.75 53.02 51.17 53.39 51.41 53.6 51.58 53.52 51.83 53.39 52.53 53.02 52.59 52.99 52.8 52.88 53.11 52.72"/><polygon class="cls-95" points="27.83 64.7 38.56 58.66 30.76 54.75 21.14 62.76 27.83 64.7"/><path class="cls-96" d="M33.43,59.21l1.68.48c3.38-1,7.48-2.16,10.85-3.14h0c-3.56-1.79-7.13-3.6-10.7-5.37C31.65,53,28,54.79,24.37,56.6,27.38,57.48,30.42,58.34,33.43,59.21Z" transform="translate(5.8 8.78)"/><polygon class="cls-97" points="80.5 80 81.86 80.4 80.57 79.74 51.81 65.32 40.91 68.46 80.5 80"/><polygon class="cls-98" points="40.91 68.46 30.17 65.38 0 80.36 40.91 68.46"/><path class="cls-99" d="M36.26,36.59,44.1,43.5l1.73-1,.93-.52,1.33-.75v0l-.76-.83L47,40,46,39l-.34-.36-.23-.26-.28-.31-.27-.27-.35-.39-.26-.29-.39-.43-1-1.06-.17-.19L42.36,35l-.89-1L41,33.56l-.34-.38-.11-.11,0,0-.08.06-.12.1-.42.36-.85.7-1.16,1-1.64,1.37Z" transform="translate(5.8 8.78)"/><polygon class="cls-100" points="0 80.36 20.27 62.51 17.22 61.62 0 80.36"/><path class="cls-101" d="M23,41.78l.52.29.61.34,1,.57,1,.55L34,36.6,29.65,33l-7.57,8.23Z" transform="translate(5.8 8.78)"/><polygon class="cls-102" points="53.95 64.71 60.67 62.75 51.22 54.9 43.44 58.79 53.95 64.71"/><path class="cls-103" d="M55.71,53.73l3-.87-8.42-9.17L46.5,45.6C49.63,48.38,52.57,51,55.71,53.73Z" transform="translate(5.8 8.78)"/><polygon class="cls-58" points="54.69 50.9 53.9 50.02 49.9 52.27 50.53 52.84 50.74 53.03 54.69 50.9"/><polygon class="cls-40" points="31.87 52.28 39.73 45.35 40.43 45.95 32.55 52.66 31.87 52.28"/><polygon class="cls-59" points="51.65 54.71 52.3 54.39 51.41 53.6 50.74 53.95 51.65 54.71"/><polygon class="cls-60" points="50.74 53.96 51.41 53.6 50.74 53.02 50.07 53.39 50.74 53.96"/><polygon class="cls-61" points="51.22 54.91 51.65 54.71 50.74 53.95 50.31 54.18 51.22 54.91"/><polygon class="cls-62" points="50.31 54.18 50.74 53.95 50.07 53.38 49.64 53.62 50.31 54.18"/><polygon class="cls-62" points="49.65 53.62 50.08 53.38 49.22 52.66 48.79 52.9 49.65 53.62"/><polygon class="cls-63" points="50.07 53.39 50.75 53.02 49.9 52.27 49.22 52.66 50.07 53.39"/><polygon class="cls-104" points="60.67 62.75 60.98 62.66 51.65 54.71 51.22 54.91 60.67 62.75"/><polygon class="cls-105" points="20.81 62.67 30.35 54.54 29.69 54.2 20.26 62.5 20.81 62.67"/><path class="cls-48" d="M20.66,42.79c.21-.22.42-.44.62-.67l3.95,2.12-.67.59Z" transform="translate(5.8 8.78)"/><polygon class="cls-47" points="25.82 52.27 26.46 51.57 30.36 53.6 29.69 54.22 25.82 52.27"/><path class="cls-106" d="M14.46,53.73c3.14-2.77,6.29-5.53,9.42-8.3L20,43.49l-8.6,9.35Z" transform="translate(5.8 8.78)"/><polygon class="cls-58" points="27.09 50.9 27.67 50.25 27.88 50.02 31.87 52.28 31.03 53.02 27.09 50.9"/><polygon class="cls-67" points="31.04 53.96 30.37 53.6 31.03 53.02 31.7 53.39 31.04 53.96"/><polygon class="cls-68" points="30.36 54.55 29.68 54.21 30.37 53.6 31.03 53.95 30.36 54.55"/><polygon class="cls-67" points="31.7 53.39 31.03 53.02 31.87 52.27 32.55 52.66 31.7 53.39"/><polygon class="cls-69" points="31.46 54.18 31.03 53.96 31.7 53.39 32.13 53.62 31.46 54.18"/><polygon class="cls-70" points="30.76 54.75 30.34 54.54 31.03 53.95 31.46 54.18 30.76 54.75"/><polygon class="cls-62" points="32.13 53.62 31.7 53.39 32.55 52.66 32.99 52.9 32.13 53.62"/><polygon class="cls-107" points="21.14 62.76 30.76 54.75 30.36 54.54 20.81 62.66 21.14 62.76"/><polygon class="cls-72" points="38.55 58.66 39.29 58.25 40.17 58.72 39.44 59.11 38.55 58.66"/><polygon class="cls-40" points="39.29 58.25 39.99 57.85 40.88 58.34 40.17 58.72 39.29 58.25"/><polygon class="cls-73" points="39.44 59.11 40.17 58.72 40.88 59.09 40.14 59.47 39.44 59.11"/><polygon class="cls-74" points="40.17 58.72 40.88 58.34 41.59 58.72 40.88 59.09 40.17 58.72"/><polygon class="cls-75" points="39.99 57.85 40.88 57.35 41.77 57.85 40.88 58.34 39.99 57.85"/><polygon class="cls-108" points="41.1 59.95 41.85 59.57 40.88 59.09 40.14 59.47 41.1 59.95"/><polygon class="cls-73" points="40.88 59.08 41.59 58.72 42.55 59.23 41.85 59.57 40.88 59.08"/><polygon class="cls-40" points="40.88 58.34 41.77 57.85 42.48 58.25 41.59 58.72 40.88 58.34"/><polygon class="cls-72" points="41.59 58.72 42.48 58.25 43.44 58.79 42.54 59.23 41.59 58.72"/><polygon class="cls-24" points="52.5 65.12 53.14 64.93 81.85 80.39 52.5 65.12"/><polygon class="cls-77" points="51.81 65.32 52.5 65.12 81.86 80.39 51.81 65.32"/><polygon class="cls-109" points="80.96 79.61 81.86 80.39 81.07 79.57 64.56 61.63 61.51 62.51 80.96 79.61"/><path class="cls-110" d="M74.91,71l1.15.64c-.3-.25-.74-.58-1-.83C68.29,65.17,61.6,59.61,54.87,54l-6.72,2C57.11,61,66,66,74.91,71Z" transform="translate(5.8 8.78)"/><polygon class="cls-23" points="28.66 64.93 27.71 64.66 1.37 79.58 0 80.36 28.66 64.93"/><polygon class="cls-24" points="29.28 65.12 28.66 64.93 0.05 80.33 0 80.36 29.28 65.12"/><polygon class="cls-77" points="30.17 65.38 29.28 65.12 0.01 80.35 0 80.36 30.17 65.38"/><path class="cls-111" d="M22,55.92c-2.23-.65-4.46-1.28-6.69-1.94C8.31,59.87-.39,67-5.8,71.58,3.48,66.37,12.69,61.05,22,55.92Zm0,0Zm0,0Z" transform="translate(5.8 8.78)"/><polygon class="cls-23" points="20.81 62.66 20.27 62.5 0.04 80.32 20.81 62.66"/><polygon class="cls-24" points="21.14 62.76 20.81 62.67 0.17 80.21 0.01 80.35 0.05 80.31 21.14 62.76"/><rect class="cls-22" x="61.66" y="25.34" width="12.32" height="32.33"/><polygon class="cls-23" points="58.74 20.88 58.59 20.35 76.43 0.05 76.47 0.01 76.44 0.05 58.74 20.88"/><polygon class="cls-24" points="58.83 21.2 58.74 20.88 76.29 0.22 76.47 0.01 76.39 0.15 58.83 21.2"/><path class="cls-112" d="M47.63,32.2l-4.32-7.67-.13-.24Q40,28.07,36.89,31.84l-.29.35q3.24,3.89,6.47,7.78l.11.13C44.66,37.47,46.16,34.84,47.63,32.2Z" transform="translate(5.8 8.78)"/><polygon class="cls-23" points="61.02 28.72 60.79 27.91 76.47 0 61.02 28.72"/><polygon class="cls-113" points="58.74 20.88 58.59 20.35 50.46 29.55 50.79 30.22 58.74 20.88"/><polygon class="cls-114" points="61.02 53.2 55.19 42.41 54.74 43.3 60.78 54.03 61.02 53.2"/><polygon class="cls-115" points="61.2 52.58 55.54 41.71 55.19 42.42 61.02 53.21 61.2 52.58"/><polygon class="cls-116" points="61.46 51.69 56.02 40.74 55.54 41.7 61.2 52.58 61.46 51.69"/><polygon class="cls-117" points="61.02 28.72 60.79 27.91 54.87 38.41 55.31 39.31 61.02 28.72"/><polygon class="cls-118" points="61.2 29.36 61.02 28.72 55.31 39.31 55.66 40.01 61.2 29.36"/><polygon class="cls-119" points="61.4 30.05 61.2 29.36 55.66 40.01 56.03 40.75 61.4 30.05"/><polygon class="cls-120" points="54.74 43.3 54.33 42.56 50.26 50.4 50.83 51.1 54.74 43.3"/><polygon class="cls-121" points="54.33 42.56 53.93 41.86 49.7 49.73 50.26 50.4 54.33 42.56"/><polygon class="cls-122" points="53.94 41.86 53.43 40.97 48.98 48.87 49.7 49.73 53.94 41.86"/><polygon class="cls-123" points="54.87 38.42 50.99 30.64 50.26 31.55 54.34 39.38 54.87 38.42"/><polygon class="cls-124" points="54.33 39.38 50.26 31.55 49.7 32.21 53.94 40.09 54.33 39.38"/><polygon class="cls-125" points="53.94 40.09 49.7 32.21 48.97 33.06 53.44 40.98 53.94 40.09"/><polygon class="cls-39" points="48.74 32.63 42.02 40.52 42.4 40.98 48.99 33.06 48.74 32.63"/><polygon class="cls-40" points="48.36 31.95 41.43 39.81 42.02 40.52 48.75 32.63 48.36 31.95"/><polygon class="cls-39" points="48.74 49.3 42.02 41.42 42.4 40.97 48.98 48.88 48.74 49.3"/><polygon class="cls-41" points="42.03 41.42 41.64 40.97 41.04 41.68 41.43 42.13 42.03 41.42"/><polygon class="cls-42" points="42.4 40.97 42.02 40.52 41.64 40.97 42.03 41.42 42.4 40.97"/><polygon class="cls-41" points="42.03 40.52 41.44 39.81 41.04 40.26 41.64 40.97 42.03 40.52"/><polygon class="cls-43" points="41.65 40.97 41.04 40.26 40.41 40.97 41.04 41.69 41.65 40.97"/><polygon class="cls-44" points="37.39 45.97 36.62 45.26 40.41 40.97 41.04 41.68 37.39 45.97"/><polygon class="cls-45" points="36.65 36.66 40.43 40.96 36.8 45.08 36.63 45.27 31.94 40.98 36.65 36.66"/><polygon class="cls-46" points="37.39 45.97 37.87 46.41 41.44 42.13 41.04 41.67 37.39 45.97"/><path class="cls-44" d="M32.13,27.83l-.54-.63.25-.24-.33.32-.35.31-.26.25-.07.06.07.09.29.32.86,1,.49.56.11.13.67.76.14.16.1.11.18.2.55.63.32.36.37-.42.26-.29Q34.63,30.78,34,30l-1.87-2.2Zm1.19,2.9-1.19-2.9Z" transform="translate(5.8 8.78)"/><polygon class="cls-47" points="48.55 25.71 47.65 26.54 49.69 30.45 50.47 29.56 48.55 25.71"/><polygon class="cls-46" points="41.44 39.81 41.04 40.26 37.39 35.97 37.88 35.53 41.44 39.81"/><polygon class="cls-48" points="48.8 28.74 48.48 28.12 48.09 27.37 48.06 27.33 47.91 27.04 47.65 26.54 47.55 26.64 47.54 26.65 47.5 26.69 46.98 27.16 47.26 27.7 47.48 28.1 47.81 28.71 48.01 29.09 48.34 29.69 49 30.92 49.01 30.94 49.1 31.11 49.47 30.69 49.69 30.45 49.6 30.27 49.47 30.03 49.1 29.33 49.07 29.27 48.96 29.06 48.8 28.74"/><polygon class="cls-126" points="60.78 54.03 54.74 43.3 50.83 51.1 58.84 60.72 60.78 54.03"/><path class="cls-127" d="M58.27,33.85l.47-1.68c-1-3.38-2.15-7.48-3.13-10.85v0h0Q52.9,26.63,50.22,32q2.7,5.49,5.44,10.94C56.53,39.9,57.4,36.86,58.27,33.85Z" transform="translate(5.8 8.78)"/><polygon class="cls-128" points="76.08 1.36 76.48 0 75.83 1.28 61.4 30.05 64.54 40.95 76.08 1.36"/><polygon class="cls-129" points="64.54 40.94 61.46 51.69 76.44 81.86 64.54 40.94"/><path class="cls-130" d="M35.65,31c2.31-2.62,4.61-5.22,6.9-7.84l-1-1.73-.52-.93-.75-1.33h0l-.83.76-.37.36-1,.94-.37.34-.25.23-.31.28-.28.27-.38.35-.29.26-.43.39-1.07,1-.19.18-.4.37-1,.89-.49.45-.37.35-.11.1-.06.05.07.08.1.12.35.42.71.85,1,1.16L35.64,31Z" transform="translate(5.8 8.78)"/><polygon class="cls-131" points="76.44 81.86 58.59 61.59 57.7 64.63 76.44 81.86"/><path class="cls-132" d="M40.83,44.32l.29-.52.34-.61.57-1,.55-1-6.92-7.87q-1.78,2.16-3.59,4.31l8.24,7.58Z" transform="translate(5.8 8.78)"/><polygon class="cls-133" points="60.79 27.91 58.83 21.19 50.98 30.64 54.87 38.42 60.79 27.91"/><path class="cls-134" d="M52.78,11.57l-.87-3.05-9.16,8.42,1.91,3.84C47.43,17.65,50,14.71,52.78,11.57Z" transform="translate(5.8 8.78)"/><polygon class="cls-58" points="46.98 27.16 46.11 27.96 48.35 31.96 48.92 31.32 49.11 31.11 46.98 27.16"/><polygon class="cls-40" points="48.36 49.99 41.43 42.13 42.03 41.42 48.74 49.3 48.36 49.99"/><polygon class="cls-59" points="50.79 30.21 50.47 29.55 49.68 30.45 50.04 31.12 50.79 30.21"/><polygon class="cls-60" points="50.04 31.12 49.68 30.45 49.1 31.11 49.47 31.79 50.04 31.12"/><polygon class="cls-61" points="50.99 30.63 50.79 30.21 50.04 31.12 50.26 31.55 50.99 30.63"/><polygon class="cls-62" points="50.26 31.55 50.04 31.12 49.47 31.79 49.7 32.22 50.26 31.55"/><polygon class="cls-62" points="49.7 32.21 49.46 31.78 48.74 32.64 48.98 33.06 49.7 32.21"/><polygon class="cls-63" points="49.48 31.78 49.1 31.11 48.35 31.95 48.74 32.64 49.48 31.78"/><polygon class="cls-135" points="58.83 21.19 58.74 20.88 50.79 30.21 50.99 30.64 58.83 21.19"/><polygon class="cls-136" points="58.75 61.05 50.62 51.51 50.28 52.17 58.58 61.59 58.75 61.05"/><path class="cls-48" d="M41.85,46.62,41.18,46c.7-1.32,1.41-2.63,2.12-4l.59.67Z" transform="translate(5.8 8.78)"/><polygon class="cls-47" points="48.35 56.04 47.65 55.4 49.69 51.49 50.3 52.17 48.35 56.04"/><path class="cls-137" d="M52.78,52.82c-2.77-3.14-5.52-6.29-8.29-9.42-.65,1.28-1.29,2.57-1.94,3.86l9.35,8.6Z" transform="translate(5.8 8.78)"/><polygon class="cls-58" points="46.98 54.77 46.33 54.18 46.1 53.98 48.36 49.99 49.1 50.83 46.98 54.77"/><polygon class="cls-67" points="50.04 50.82 49.69 51.49 49.1 50.83 49.47 50.15 50.04 50.82"/><polygon class="cls-68" points="50.63 51.5 50.29 52.17 49.68 51.48 50.03 50.83 50.63 51.5"/><polygon class="cls-67" points="49.47 50.16 49.1 50.83 48.35 49.99 48.74 49.3 49.47 50.16"/><polygon class="cls-69" points="50.26 50.4 50.04 50.83 49.47 50.16 49.7 49.73 50.26 50.4"/><polygon class="cls-70" points="50.83 51.09 50.62 51.52 50.03 50.83 50.26 50.4 50.83 51.09"/><polygon class="cls-62" points="49.7 49.73 49.47 50.16 48.74 49.3 48.98 48.87 49.7 49.73"/><polygon class="cls-138" points="58.84 60.72 50.83 51.1 50.62 51.5 58.75 61.05 58.84 60.72"/><polygon class="cls-72" points="54.74 43.31 54.33 42.56 54.8 41.69 55.19 42.42 54.74 43.31"/><polygon class="cls-40" points="54.33 42.56 53.93 41.87 54.42 40.98 54.8 41.69 54.33 42.56"/><polygon class="cls-73" points="55.19 42.42 54.8 41.69 55.17 40.98 55.55 41.72 55.19 42.42"/><polygon class="cls-74" points="54.8 41.69 54.42 40.98 54.8 40.27 55.17 40.98 54.8 41.69"/><polygon class="cls-75" points="53.93 41.87 53.44 40.98 53.94 40.09 54.42 40.98 53.93 41.87"/><polygon class="cls-139" points="56.03 40.75 55.66 40.01 55.17 40.98 55.55 41.72 56.03 40.75"/><polygon class="cls-73" points="55.16 40.98 54.8 40.27 55.31 39.31 55.66 40.01 55.16 40.98"/><polygon class="cls-40" points="54.42 40.98 53.94 40.09 54.33 39.37 54.8 40.27 54.42 40.98"/><polygon class="cls-72" points="54.8 40.27 54.33 39.38 54.87 38.42 55.31 39.31 54.8 40.27"/><polygon class="cls-24" points="61.2 29.36 61.01 28.72 76.47 0 61.2 29.36"/><polygon class="cls-77" points="61.4 30.05 61.2 29.36 76.47 0 61.4 30.05"/><polygon class="cls-140" points="75.69 0.9 76.47 0 75.65 0.79 57.71 17.3 58.59 20.35 75.69 0.9"/><path class="cls-141" d="M70-7.63c.19-.33.46-.81.64-1.15-.25.3-.58.74-.82,1C64.23-1,58.66,5.68,53,12.41l2,6.72C60.05,10.17,65.06,1.33,70-7.63Z" transform="translate(5.8 8.78)"/><polygon class="cls-23" points="61.01 53.2 60.74 54.15 75.66 80.48 76.44 81.86 61.01 53.2"/><polygon class="cls-24" points="61.2 52.58 61.01 53.2 76.41 81.81 76.44 81.86 61.2 52.58"/><polygon class="cls-77" points="61.46 51.69 61.2 52.58 76.43 81.84 76.44 81.86 61.46 51.69"/><path class="cls-142" d="M55,45.25c-.65,2.23-1.28,4.46-1.94,6.69,5.89,7,13,15.73,17.6,21.14C65.42,63.8,60.11,54.59,55,45.25Zm0,0Zm0,0Z" transform="translate(5.8 8.78)"/><polygon class="cls-23" points="58.75 61.05 58.58 61.59 76.4 81.82 58.75 61.05"/><polygon class="cls-24" points="58.84 60.71 58.75 61.05 76.29 81.69 76.43 81.85 76.39 81.81 58.84 60.71"/><rect class="cls-22" x="7.36" y="25.34" width="12.32" height="32.33"/><polygon class="cls-23" points="22.59 20.88 22.75 20.35 4.9 0.05 4.86 0.01 4.89 0.05 22.59 20.88"/><polygon class="cls-24" points="22.5 21.2 22.59 20.88 5.04 0.22 4.86 0.01 4.94 0.15 22.5 21.2"/><path class="cls-143" d="M22.1,32.2l4.32-7.67.13-.24q3.14,3.78,6.29,7.55l.29.35Q29.89,36.08,26.66,40l-.11.13C25.07,37.47,23.57,34.84,22.1,32.2Z" transform="translate(5.8 8.78)"/><polygon class="cls-23" points="20.32 28.72 20.55 27.91 4.86 0 20.32 28.72"/><polygon class="cls-144" points="22.59 20.88 22.75 20.35 30.88 29.55 30.54 30.22 22.59 20.88"/><polygon class="cls-145" points="20.32 53.2 26.14 42.41 26.59 43.3 20.55 54.03 20.32 53.2"/><polygon class="cls-146" points="20.14 52.58 25.79 41.71 26.14 42.42 20.32 53.21 20.14 52.58"/><polygon class="cls-147" points="19.87 51.69 25.31 40.74 25.79 41.7 20.14 52.58 19.87 51.69"/><polygon class="cls-148" points="20.32 28.72 20.55 27.91 26.47 38.41 26.02 39.31 20.32 28.72"/><polygon class="cls-149" points="20.13 29.36 20.32 28.72 26.02 39.31 25.68 40.01 20.13 29.36"/><polygon class="cls-150" points="19.93 30.05 20.13 29.36 25.68 40.01 25.31 40.75 19.93 30.05"/><polygon class="cls-151" points="26.59 43.3 27 42.56 31.08 50.4 30.5 51.1 26.59 43.3"/><polygon class="cls-152" points="27 42.56 27.4 41.86 31.63 49.73 31.08 50.4 27 42.56"/><polygon class="cls-153" points="27.4 41.86 27.9 40.97 32.35 48.87 31.63 49.73 27.4 41.86"/><polygon class="cls-154" points="26.46 38.42 30.34 30.64 31.08 31.55 27 39.38 26.46 38.42"/><polygon class="cls-155" points="27 39.38 31.07 31.55 31.64 32.21 27.4 40.09 27 39.38"/><polygon class="cls-156" points="27.4 40.09 31.63 32.21 32.37 33.06 27.9 40.98 27.4 40.09"/><polygon class="cls-39" points="32.59 32.63 39.32 40.52 38.94 40.98 32.35 33.06 32.59 32.63"/><polygon class="cls-40" points="32.97 31.95 39.9 39.81 39.31 40.52 32.59 32.63 32.97 31.95"/><polygon class="cls-39" points="32.59 49.3 39.31 41.42 38.93 40.97 32.35 48.88 32.59 49.3"/><polygon class="cls-41" points="39.3 41.42 39.69 40.97 40.3 41.68 39.9 42.13 39.3 41.42"/><polygon class="cls-42" points="38.93 40.97 39.31 40.52 39.69 40.97 39.31 41.42 38.93 40.97"/><polygon class="cls-41" points="39.31 40.52 39.9 39.81 40.3 40.26 39.69 40.97 39.31 40.52"/><polygon class="cls-43" points="39.69 40.97 40.29 40.26 40.92 40.97 40.29 41.69 39.69 40.97"/><polygon class="cls-44" points="43.94 45.97 44.71 45.26 40.92 40.97 40.3 41.68 43.94 45.97"/><polygon class="cls-45" points="44.68 36.66 40.9 40.96 44.53 45.08 44.7 45.27 49.4 40.98 44.68 36.66"/><polygon class="cls-46" points="43.94 45.97 43.46 46.41 39.89 42.13 40.29 41.67 43.94 45.97"/><path class="cls-44" d="M37.6,27.83l.54-.63L37.89,27l.33.32.35.31.26.25.07.06-.07.09-.29.32-.86,1-.49.56-.11.13-.67.76-.14.16-.1.11-.17.2-.56.63-.32.36-.37-.42-.26-.29q.61-.7,1.23-1.44l1.87-2.2Zm-1.19,2.9,1.19-2.9Z" transform="translate(5.8 8.78)"/><polygon class="cls-47" points="32.78 25.71 33.68 26.54 31.65 30.45 30.87 29.56 32.78 25.71"/><polygon class="cls-46" points="39.89 39.81 40.3 40.26 43.95 35.97 43.46 35.53 39.89 39.81"/><polygon class="cls-48" points="32.53 28.74 32.86 28.12 33.25 27.37 33.27 27.33 33.42 27.04 33.68 26.54 33.79 26.64 33.8 26.65 33.84 26.69 34.36 27.16 34.07 27.7 33.85 28.1 33.52 28.71 33.32 29.09 33 29.69 32.33 30.92 32.32 30.94 32.23 31.11 31.86 30.69 31.65 30.45 31.74 30.27 31.86 30.03 32.23 29.33 32.26 29.27 32.37 29.06 32.53 28.74"/><polygon class="cls-157" points="20.55 54.03 26.59 43.3 30.5 51.1 22.49 60.72 20.55 54.03"/><path class="cls-158" d="M11.46,33.85,11,32.17c1-3.38,2.15-7.48,3.13-10.85v0h0q2.7,5.36,5.38,10.7-2.7,5.49-5.44,10.94C13.2,39.9,12.33,36.86,11.46,33.85Z" transform="translate(5.8 8.78)"/><polygon class="cls-159" points="5.25 1.36 4.86 0 5.51 1.28 19.93 30.05 16.8 40.95 5.25 1.36"/><polygon class="cls-160" points="16.8 40.94 19.88 51.69 4.89 81.86 16.8 40.94"/><path class="cls-161" d="M34.08,31c-2.31-2.62-4.61-5.22-6.9-7.84l1-1.73.52-.93.76-1.33h0l.83.76.37.36,1,.94.37.34.25.23.31.28.28.27.39.35.28.26.44.39,1.06,1,.19.18.41.37,1,.89.49.45.37.35.11.1.06.05-.07.08-.1.12-.35.42-.71.85-1,1.16L34.1,31Z" transform="translate(5.8 8.78)"/><polygon class="cls-162" points="4.89 81.86 22.75 61.59 23.63 64.63 4.89 81.86"/><path class="cls-163" d="M28.9,44.32l-.29-.52-.34-.61-.57-1-.55-1,6.92-7.87q1.78,2.16,3.59,4.31l-8.24,7.58Z" transform="translate(5.8 8.78)"/><polygon class="cls-164" points="20.55 27.91 22.5 21.19 30.35 30.64 26.46 38.42 20.55 27.91"/><path class="cls-165" d="M17,11.57l.87-3.05L27,16.94l-1.91,3.84C22.3,17.65,19.72,14.71,17,11.57Z" transform="translate(5.8 8.78)"/><polygon class="cls-58" points="34.36 27.16 35.23 27.96 32.98 31.96 32.41 31.32 32.22 31.11 34.36 27.16"/><polygon class="cls-40" points="32.98 49.99 39.9 42.13 39.31 41.42 32.59 49.3 32.98 49.99"/><polygon class="cls-59" points="30.54 30.21 30.87 29.55 31.65 30.45 31.3 31.12 30.54 30.21"/><polygon class="cls-60" points="31.3 31.12 31.65 30.45 32.23 31.11 31.87 31.79 31.3 31.12"/><polygon class="cls-61" points="30.34 30.63 30.55 30.21 31.3 31.12 31.08 31.55 30.34 30.63"/><polygon class="cls-62" points="31.07 31.55 31.3 31.12 31.87 31.79 31.64 32.22 31.07 31.55"/><polygon class="cls-62" points="31.63 32.21 31.87 31.78 32.59 32.64 32.35 33.06 31.63 32.21"/><polygon class="cls-63" points="31.86 31.78 32.23 31.11 32.98 31.95 32.59 32.64 31.86 31.78"/><polygon class="cls-166" points="22.5 21.19 22.59 20.88 30.55 30.21 30.34 30.64 22.5 21.19"/><polygon class="cls-167" points="22.59 61.05 30.71 51.51 31.05 52.17 22.75 61.59 22.59 61.05"/><path class="cls-48" d="M27.88,46.62l.67-.62c-.7-1.32-1.41-2.63-2.12-4l-.59.67Z" transform="translate(5.8 8.78)"/><polygon class="cls-47" points="32.98 56.04 33.68 55.4 31.65 51.49 31.04 52.17 32.98 56.04"/><path class="cls-168" d="M17,52.82c2.77-3.14,5.52-6.29,8.29-9.42.65,1.28,1.3,2.57,1.94,3.86l-9.35,8.6Z" transform="translate(5.8 8.78)"/><polygon class="cls-58" points="34.35 54.77 35 54.18 35.23 53.98 32.97 49.99 32.23 50.83 34.35 54.77"/><polygon class="cls-67" points="31.3 50.82 31.65 51.49 32.23 50.83 31.86 50.15 31.3 50.82"/><polygon class="cls-68" points="30.7 51.5 31.04 52.17 31.65 51.48 31.3 50.83 30.7 51.5"/><polygon class="cls-67" points="31.86 50.16 32.23 50.83 32.98 49.99 32.59 49.3 31.86 50.16"/><polygon class="cls-69" points="31.08 50.4 31.3 50.83 31.87 50.16 31.63 49.73 31.08 50.4"/><polygon class="cls-70" points="30.5 51.09 30.71 51.52 31.3 50.83 31.08 50.4 30.5 51.09"/><polygon class="cls-62" points="31.63 49.73 31.86 50.16 32.6 49.3 32.35 48.87 31.63 49.73"/><polygon class="cls-169" points="22.49 60.72 30.5 51.1 30.71 51.5 22.59 61.05 22.49 60.72"/><polygon class="cls-72" points="26.59 43.31 27 42.56 26.54 41.69 26.14 42.42 26.59 43.31"/><polygon class="cls-40" points="27 42.56 27.4 41.87 26.91 40.98 26.54 41.69 27 42.56"/><polygon class="cls-73" points="26.14 42.42 26.54 41.69 26.17 40.98 25.78 41.72 26.14 42.42"/><polygon class="cls-74" points="26.54 41.69 26.92 40.98 26.54 40.27 26.17 40.98 26.54 41.69"/><polygon class="cls-75" points="27.4 41.87 27.9 40.98 27.4 40.09 26.91 40.98 27.4 41.87"/><polygon class="cls-170" points="25.3 40.75 25.68 40.01 26.17 40.98 25.79 41.72 25.3 40.75"/><polygon class="cls-73" points="26.17 40.98 26.54 40.27 26.02 39.31 25.68 40.01 26.17 40.98"/><polygon class="cls-40" points="26.91 40.98 27.4 40.09 27 39.37 26.53 40.27 26.91 40.98"/><polygon class="cls-72" points="26.54 40.27 27 39.38 26.46 38.42 26.02 39.31 26.54 40.27"/><polygon class="cls-24" points="20.13 29.36 20.32 28.72 4.86 0 20.13 29.36"/><polygon class="cls-77" points="19.93 30.05 20.13 29.36 4.86 0 19.93 30.05"/><polygon class="cls-171" points="5.64 0.9 4.86 0 5.68 0.79 23.62 17.3 22.75 20.35 5.64 0.9"/><path class="cls-172" d="M-.3-7.63C-.49-8-.76-8.44-.94-8.78c.25.3.58.74.82,1C5.5-1,11.07,5.68,16.7,12.41l-2,6.72C9.68,10.17,4.67,1.33-.3-7.63Z" transform="translate(5.8 8.78)"/><polygon class="cls-23" points="20.32 53.2 20.59 54.15 5.67 80.48 4.9 81.86 20.32 53.2"/><polygon class="cls-24" points="20.13 52.58 20.32 53.2 4.92 81.81 4.9 81.86 20.13 52.58"/><polygon class="cls-77" points="19.87 51.69 20.14 52.58 4.9 81.84 4.89 81.86 19.87 51.69"/><path class="cls-173" d="M14.75,45.25c.65,2.23,1.28,4.46,1.94,6.69-5.89,7-13,15.73-17.6,21.14C4.31,63.8,9.62,54.59,14.75,45.25Zm0,0Zm0,0Z" transform="translate(5.8 8.78)"/><polygon class="cls-23" points="22.59 61.05 22.75 61.59 4.93 81.82 22.59 61.05"/><polygon class="cls-24" points="22.49 60.71 22.59 61.05 5.04 81.69 4.9 81.85 4.94 81.81 22.49 60.71"/></g></g></g></svg>