<svg xmlns="http://www.w3.org/2000/svg" viewBox="0 0 45.42 45.42"><defs><style>.cls-1{fill:#1d99ee;}.cls-2{fill:#fff;}</style></defs><g id="Layer_2" data-name="Layer 2"><g id="Layer_1-2" data-name="Layer 1"><circle class="cls-1" cx="22.71" cy="22.71" r="22.71"/><path class="cls-2" d="M18.12,35.79c11.09,0,17.16-9.19,17.16-17.16,0-.26,0-.52,0-.78a12.23,12.23,0,0,0,3-3.12,12.14,12.14,0,0,1-3.46.95,6.08,6.08,0,0,0,2.65-3.34,12.18,12.18,0,0,1-3.83,1.47A6,6,0,0,0,23.2,17.93a6.28,6.28,0,0,0,.15,1.38A17.19,17.19,0,0,1,10.92,13a6.05,6.05,0,0,0,1.87,8,6,6,0,0,1-2.73-.76v.08a6,6,0,0,0,4.84,5.91,6,6,0,0,1-1.59.21,6.12,6.12,0,0,1-1.14-.11,6,6,0,0,0,5.64,4.19,12.11,12.11,0,0,1-7.49,2.58,11.37,11.37,0,0,1-1.44-.08,17.08,17.08,0,0,0,9.24,2.71"/></g></g></svg>