<svg xmlns="http://www.w3.org/2000/svg" viewBox="0 0 45.42 45.42"><defs><style>.cls-1{fill:#2967b0;}.cls-2{fill:#fdfdfd;}</style></defs><g id="Layer_2" data-name="Layer 2"><g id="Layer_1-2" data-name="Layer 1"><circle class="cls-1" cx="22.71" cy="22.71" r="22.71"/><path class="cls-2" d="M24.47,19.61c.37-.42.68-.84,1.06-1.2a5.86,5.86,0,0,1,4.2-1.66,9.79,9.79,0,0,1,2.64.32A5.17,5.17,0,0,1,36,20.92a16.08,16.08,0,0,1,.49,4.42c0,3.13,0,6.27,0,9.41,0,.29-.09.37-.37.37-1.62,0-3.24,0-4.85,0-.29,0-.35-.09-.35-.36,0-3,0-6,0-8.95a7.89,7.89,0,0,0-.26-2.22,2.49,2.49,0,0,0-2.75-1.95,3,3,0,0,0-3.15,3A10.85,10.85,0,0,0,24.7,26q0,4.35,0,8.71c0,.29-.07.37-.37.37-1.63,0-3.25,0-4.88,0-.26,0-.34-.07-.34-.34q0-8.61,0-17.24c0-.28.09-.35.36-.35,1.55,0,3.1,0,4.64,0,.29,0,.36.09.35.36C24.46,18.24,24.47,18.92,24.47,19.61Z"/><path class="cls-2" d="M15.61,26.18c0,2.84,0,5.69,0,8.53,0,.32-.08.41-.41.41-1.61,0-3.23,0-4.84,0-.26,0-.34-.07-.34-.33q0-8.64,0-17.28c0-.23.06-.32.31-.32,1.64,0,3.28,0,4.92,0,.31,0,.36.12.36.39C15.61,20.45,15.61,23.31,15.61,26.18Z"/><path class="cls-2" d="M16.06,11.49a3.23,3.23,0,1,1-3.22-3.21A3.24,3.24,0,0,1,16.06,11.49Z"/></g></g></svg>