<svg xmlns="http://www.w3.org/2000/svg" viewBox="0 0 45.42 45.42"><defs><style>.cls-1{fill:#1677f0;}.cls-2{fill:#fff;}</style></defs><g id="Layer_2" data-name="Layer 2"><g id="Layer_1-2" data-name="Layer 1"><path class="cls-1" d="M45.42,22.71A22.71,22.71,0,1,0,19.16,45.14V29.27H13.4V22.71h5.76v-5c0-5.69,3.39-8.84,8.58-8.84a35.2,35.2,0,0,1,5.08.44V14.9H30c-2.82,0-3.7,1.75-3.7,3.55v4.26h6.3l-1,6.56H26.26V45.14A22.7,22.7,0,0,0,45.42,22.71Z"/><path class="cls-2" d="M31.55,29.27l1-6.56h-6.3V18.45c0-1.8.88-3.55,3.7-3.55h2.86V9.31a35.2,35.2,0,0,0-5.08-.44c-5.19,0-8.58,3.15-8.58,8.84v5H13.4v6.56h5.76V45.14a22.64,22.64,0,0,0,7.1,0V29.27Z"/></g></g></svg>