<svg xmlns="http://www.w3.org/2000/svg" viewBox="0 0 240.12 235.31"><defs><style>.cls-1{fill:#0797bc;}.cls-2{fill:none;}</style></defs><g id="Layer_2" data-name="Layer 2"><g id="Layer_1-2" data-name="Layer 1"><rect class="cls-1" x="205.45" y="184.93" width="5.15" height="2.01" transform="translate(-30.69 330.36) rotate(-72.96)"/><path class="cls-1" d="M194.11,235.31h-24.2v-2h23.8l3.6-3.5,1.4,1.44-3.9,3.78A1,1,0,0,1,194.11,235.31Z"/><path class="cls-1" d="M208,194.74a1.67,1.67,0,1,1-1.67,1.67A1.67,1.67,0,0,1,208,194.74Z"/><path class="cls-1" d="M198,206.84a1.25,1.25,0,1,1,1.25-1.25A1.25,1.25,0,0,1,198,206.84Z"/><path class="cls-1" d="M197.17,200.58a2.51,2.51,0,1,1,2.51-2.51A2.5,2.5,0,0,1,197.17,200.58Z"/><path class="cls-1" d="M200.1,216.44a2.09,2.09,0,1,1,2.08,2.09A2.09,2.09,0,0,1,200.1,216.44Z"/><path class="cls-1" d="M206.36,229.38a2.92,2.92,0,1,1,2.92-2.92A2.92,2.92,0,0,1,206.36,229.38Z"/><path class="cls-1" d="M208,208.93a2.51,2.51,0,1,1,2.5-2.51A2.51,2.51,0,0,1,208,208.93Z"/><path class="cls-1" d="M213,219.78a1.67,1.67,0,1,1,1.67-1.67A1.67,1.67,0,0,1,213,219.78Z"/><path class="cls-1" d="M204.87,234.65a10.3,10.3,0,0,1-9.86-7.38,34.77,34.77,0,0,1-.87-6.91,33.72,33.72,0,0,0-.7-6l-.12-.4a32.48,32.48,0,0,0-2.68-5.44,34.72,34.72,0,0,1-3-6.27,10.29,10.29,0,0,1,6.95-12.77l7-2.07a10.29,10.29,0,0,1,12.77,7,34.1,34.1,0,0,1,.86,6.91,32.74,32.74,0,0,0,.71,6l.11.39a34.11,34.11,0,0,0,2.68,5.44,34.47,34.47,0,0,1,3,6.27,10.3,10.3,0,0,1-7,12.77l-7,2.07A10.16,10.16,0,0,1,204.87,234.65ZM204.5,189a8.15,8.15,0,0,0-2.33.33l-7,2.08a8.28,8.28,0,0,0-5.59,10.27,32.29,32.29,0,0,0,2.85,5.86,34.66,34.66,0,0,1,2.85,5.84l.12.41a34.08,34.08,0,0,1,.78,6.47,33.86,33.86,0,0,0,.78,6.46,8.29,8.29,0,0,0,10.28,5.6l7-2.08A8.28,8.28,0,0,0,219.83,220a34,34,0,0,0-2.85-5.86,33.19,33.19,0,0,1-2.85-5.84l-.12-.41a33.28,33.28,0,0,1-.78-6.46,33,33,0,0,0-.79-6.47A8.28,8.28,0,0,0,204.5,189Z"/><path class="cls-1" d="M209.17,185.05H170.25v-2h38.92a2,2,0,0,0,2-2v-1a2,2,0,0,0-2-2H170.25v-2h38.92a4,4,0,0,1,4,4v1A4,4,0,0,1,209.17,185.05Z"/><path class="cls-1" d="M207.77,177.26l-1.77-.94a5.27,5.27,0,0,0-3.16-7.49,1,1,0,0,1-.69-.7,7.34,7.34,0,0,0-7.06-5.36,7.27,7.27,0,0,0-2.64.49,1,1,0,0,1-1.27-.49,11.91,11.91,0,0,0-18.94-3.37L170.85,158a13.92,13.92,0,0,1,21.72,3.15,9.37,9.37,0,0,1,11.36,6,7.26,7.26,0,0,1,3.84,10.18Z"/><path class="cls-1" d="M182,193.83a5,5,0,0,1-5-5v-.74h2v.74a3,3,0,0,0,1,2.23,3,3,0,0,0,2.31.77,3.16,3.16,0,0,0,2.73-3.22v-.52h2v.52a5.19,5.19,0,0,1-4.55,5.22A3.62,3.62,0,0,1,182,193.83Z"/><path class="cls-1" d="M172.08,205l-1.26-1.57c6.33-5.09,9.94-14.4,10-14.49l1.88.72C182.52,190.07,178.84,199.57,172.08,205Z"/><path class="cls-1" d="M192.12,171.78a4.87,4.87,0,0,0-6-2.95,1,1,0,0,1-.82-.09,1,1,0,0,1-.47-.68,4.42,4.42,0,0,0-8.76.8h-2a6.43,6.43,0,0,1,12.48-2.18,7.17,7.17,0,0,1,1-.08,6.88,6.88,0,0,1,6.44,4.49Z"/><path class="cls-1" d="M224.46,82.33a1,1,0,0,1-.62-.22L170,39.9a1,1,0,0,1-.38-.67,1,1,0,0,1,.21-.74l3.82-4.88a6,6,0,0,1,8.37-1l5.84,4.59,4.9-6.24A8.45,8.45,0,0,1,204.6,29.5L225.68,46a8.44,8.44,0,0,1,1.43,11.85l-4.89,6.23,5.84,4.59a6,6,0,0,1,1,8.36l-3.83,4.88A1,1,0,0,1,224.46,82.33ZM172,38.94l52.26,41,3.21-4.09a4,4,0,0,0-.68-5.54l-6.63-5.2a1,1,0,0,1-.38-.67,1,1,0,0,1,.21-.75l5.51-7a6.43,6.43,0,0,0-1.09-9L203.36,31.09a6.43,6.43,0,0,0-9,1.09l-5.51,7a1,1,0,0,1-1.42.17l-6.63-5.2a3.88,3.88,0,0,0-2.91-.82,4,4,0,0,0-2.64,1.49Z"/><path class="cls-1" d="M216.59,61a1,1,0,0,1-.62-.21L192.56,42.46a1,1,0,0,1-.38-.67,1,1,0,0,1,.2-.74l5.06-6.44a2.46,2.46,0,0,1,1.65-.93,2.49,2.49,0,0,1,1.84.51L222,50.72a2.48,2.48,0,0,1,.42,3.48l-5.05,6.45A1,1,0,0,1,216.59,61Zm-22-19.53,21.83,17.12L220.85,53a.47.47,0,0,0-.08-.66L199.69,35.77a.46.46,0,0,0-.35-.1.48.48,0,0,0-.32.18Z"/><rect class="cls-1" x="190.32" y="62.72" width="8.92" height="2.01" transform="translate(24.43 177.67) rotate(-51.89)"/><rect class="cls-1" x="192.41" y="69.13" width="12.66" height="2.01" transform="translate(27.86 193.49) rotate(-55.26)"/><rect class="cls-1" x="202.47" y="70.92" width="6.73" height="2.01" transform="translate(36.34 209.08) rotate(-58.24)"/><rect class="cls-1" x="201.28" y="79.25" width="15.9" height="2.01" transform="translate(41.9 229.31) rotate(-62.68)"/><rect class="cls-1" x="210.1" y="81.62" width="11.55" height="2.01" transform="translate(54.97 248.57) rotate(-66.83)"/><path class="cls-1" d="M215,104.19a1,1,0,0,1-.62-.22l-64-50.19a1,1,0,0,1-.38-.84,1,1,0,0,1,.47-.8l20.83-13,1.06,1.71L152.71,53.09l61.92,48.55,7.71-21.57,1.9.67-7.92,22.15a.75.75,0,0,1-.1.2l-.4.63a1,1,0,0,1-.68.45Z"/><rect class="cls-1" x="176.69" y="70.27" width="3.91" height="2.01" transform="translate(6.06 156.18) rotate(-47.95)"/><rect class="cls-1" x="181.62" y="60.2" width="12.21" height="2.01" transform="translate(16.54 159.6) rotate(-47.95)"/><rect class="cls-1" x="172.36" y="57.28" width="16.51" height="2.01" transform="translate(10.39 142.22) rotate(-44.13)"/><rect class="cls-1" x="170.68" y="51.4" width="12.11" height="2.01" transform="translate(9.35 129.62) rotate(-41.28)"/><rect class="cls-1" x="164.45" y="47.33" width="12.99" height="2.01" transform="translate(7.27 117.38) rotate(-38.66)"/><path class="cls-1" d="M47.23,77.51,35,79.26a.94.94,0,0,1-.29,0c-5.18-.94-16.16-10.14-17-19.76a.88.88,0,0,1,.44-.85c8.07-4.73,11-12.28,12-17.78l1.77.32c-1.05,5.76-4.05,13.63-12.33,18.7,1.07,8.27,10.56,16.6,15.3,17.58l11.9-1.7c4.24-2.27,11-12.91,9.66-21.16C47.11,52.05,42,45.35,39.4,40.11l1.61-.8c2.51,5,7.4,11.44,16.48,13.7a.9.9,0,0,1,.66.69c1.93,9.48-6,21.38-10.64,23.73A.9.9,0,0,1,47.23,77.51Z"/><path class="cls-1" d="M31.09,32.75,29.32,33l-.42-2.9c-1-.85-4.32-3.88-4.8-7.2-.57-4,3.76-7.09,8.27-7.73,4-.58,13.33-.52,13.65,1.72l.4,2.79L44.64,20l-.36-2.51c-1.15-.54-6.66-1.21-11.65-.49-3,.43-7.21,2.54-6.75,5.71s4.37,6.24,4.41,6.27a.91.91,0,0,1,.33.58Z"/><path class="cls-1" d="M39.07,31.61l-1.77.25-.72-5a.9.9,0,0,1,.69-1c3.7-.87,7.19-2.23,7.79-3l-.29-2,1.77-.26.33,2.3a.94.94,0,0,1,0,.41c-.65,1.94-5.57,3.44-8.37,4.14Z"/><path class="cls-1" d="M49.71,23.75l-4.43.63L45,22.61l3.55-.51-.63-4.43-3.55.51-.26-1.78,4.44-.63a.83.83,0,0,1,.66.17.87.87,0,0,1,.35.59l.89,6.2A.9.9,0,0,1,49.71,23.75Z"/><path class="cls-1" d="M53.16,35.1c-.35-.06-8.54-1.57-10.7-9.49l1.73-.47c1.86,6.8,9,8.15,9.27,8.2Z"/><rect class="cls-1" x="36.03" y="40.15" width="1.79" height="16.13" transform="translate(-6.47 5.73) rotate(-8.16)"/><rect class="cls-1" x="60.67" y="9.76" width="3.12" height="1.79" transform="translate(0.96 25.9) rotate(-23.68)"/><rect class="cls-1" x="52.56" y="12.92" width="4.93" height="1.79" transform="translate(-0.92 23.27) rotate(-23.68)"/><rect class="cls-1" x="62.37" y="16.32" width="2.69" height="1.79" transform="translate(-1.8 9.21) rotate(-8.16)"/><rect class="cls-1" x="53.49" y="17.46" width="4.48" height="1.79" transform="translate(-2.04 8.09) rotate(-8.16)"/><rect class="cls-1" x="62.61" y="22.85" width="1.79" height="3.42" transform="translate(25.88 81.3) rotate(-77.6)"/><rect class="cls-1" x="55.22" y="20.63" width="1.79" height="4.62" transform="translate(21.67 72.82) rotate(-77.6)"/><rect class="cls-1" x="19" y="59.86" width="37.63" height="1.79" transform="translate(-8.24 5.98) rotate(-8.16)"/><path class="cls-1" d="M39.55,39.69,31.13,40.9a3.18,3.18,0,0,1-3.75-2.44l-.31-2.15A3.19,3.19,0,0,1,30,32.91l8.41-1.2a3.17,3.17,0,0,1,3.75,2.43l.31,2.16A3.18,3.18,0,0,1,39.55,39.69Zm-9.31-5c-.84.12-1.48.74-1.39,1.36l.31,2.15c.08.62.87,1,1.72.92l8.41-1.2c.85-.13,1.48-.75,1.4-1.37l-.31-2.15c-.09-.62-.88-1-1.72-.92Z"/><path class="cls-1" d="M76.93,21.71l1.31,2.4a7.43,7.43,0,0,0,3,3l2.4,1.32-2.4,1.31a7.5,7.5,0,0,0-3,3l-1.31,2.4-1.32-2.4a7.43,7.43,0,0,0-3-3l-2.4-1.31,2.4-1.32a7.37,7.37,0,0,0,3-3Z"/><path class="cls-1" d="M9,156.52l1.31,2.4a7.58,7.58,0,0,0,3,3l2.4,1.31-2.4,1.31a7.56,7.56,0,0,0-3,3L9,169.91l-1.31-2.4a7.56,7.56,0,0,0-3-3l-2.4-1.31,2.4-1.31a7.58,7.58,0,0,0,3-3Z"/><path class="cls-1" d="M127.15,48.53l.91,1.66a5.2,5.2,0,0,0,2.08,2.08l1.66.91-1.66.91a5.24,5.24,0,0,0-2.08,2.07l-.91,1.67-.91-1.67a5.28,5.28,0,0,0-2.07-2.07l-1.67-.91,1.67-.91a5.24,5.24,0,0,0,2.07-2.08Z"/><path class="cls-1" d="M213.61,134.61l.73,1.33A4.12,4.12,0,0,0,216,137.6l1.34.73-1.34.73a4.12,4.12,0,0,0-1.65,1.66l-.73,1.33-.73-1.33a4.14,4.14,0,0,0-1.66-1.66l-1.33-.73,1.33-.73a4.14,4.14,0,0,0,1.66-1.66Z"/><path class="cls-1" d="M106.46,32.58l.73,1.34a4.18,4.18,0,0,0,1.66,1.65l1.33.73-1.33.73a4.14,4.14,0,0,0-1.66,1.66L106.46,40l-.73-1.33A4.14,4.14,0,0,0,104.07,37l-1.33-.73,1.33-.73a4.18,4.18,0,0,0,1.66-1.65Z"/><path class="cls-1" d="M5.82,65.37l.94,1.71A5.4,5.4,0,0,0,8.88,69.2l1.71.93-1.71.94a5.4,5.4,0,0,0-2.12,2.12L5.82,74.9l-.93-1.71a5.4,5.4,0,0,0-2.12-2.12l-1.71-.94,1.71-.93a5.4,5.4,0,0,0,2.12-2.12Z"/><path class="cls-1" d="M3,146.89c-.23-1-.44-2-.64-3l2-.4c.2,1,.41,1.95.63,2.92Zm-1.2-6c-.18-1-.34-2-.49-3l2-.29c.15,1,.31,2,.48,3Zm-.9-6c-.12-1-.24-2-.33-3l2-.2c.09,1,.2,2,.32,3Zm-.59-6c-.08-1-.14-2-.18-3l2-.09c0,1,.11,2,.18,3ZM0,122.78c0-.9,0-1.81,0-2.72v-.32H2v.31c0,.9,0,1.79,0,2.68Zm2-6-2-.06q0-1.52.12-3l2,.1C2.12,114.76,2.08,115.76,2.06,116.76Zm.31-6-2-.16c.08-1,.17-2,.28-3l2,.2C2.54,108.8,2.45,109.79,2.37,110.79Zm.61-6-2-.25c.13-1,.27-2,.42-3l2,.3C3.25,102.87,3.11,103.85,3,104.84Zm.91-5.9-2-.36c.18-1,.37-2,.57-3l2,.41C4.26,97,4.07,98,3.89,98.94Zm1.22-5.86-2-.45c.23-1,.47-2,.73-3l1.94.51C5.57,91.14,5.33,92.11,5.11,93.08Z"/><path class="cls-1" d="M188.68,24c-.81-.58-1.63-1.15-2.45-1.71l1.13-1.66q1.26.86,2.49,1.74Zm-5-3.35c-.83-.54-1.68-1.07-2.53-1.58l1-1.72c.87.52,1.73,1.06,2.58,1.61Zm-5.11-3.1c-.86-.5-1.73-1-2.61-1.45l1-1.77c.89.48,1.77,1,2.65,1.47Zm-5.26-2.84c-.88-.45-1.78-.89-2.68-1.32l.87-1.81c.91.43,1.82.88,2.72,1.34ZM168,12.14c-.91-.41-1.83-.8-2.75-1.18L166,9.1q1.41.59,2.79,1.2Zm-5.52-2.29c-.93-.36-1.86-.71-2.8-1l.67-1.89q1.44.51,2.85,1Zm-5.63-2Q155.41,7.39,154,7L154.55,5c1,.29,1.93.59,2.9.91ZM151.1,6.13c-1-.26-1.92-.51-2.89-.74l.47-2c1,.24,2,.5,2.95.76ZM88.94,5.69l-.45-2c1-.22,2-.43,3-.64l.4,2Zm56.36-1c-1-.21-2-.41-2.93-.59l.38-2c1,.19,2,.39,3,.61ZM94.8,4.5l-.35-2c1-.18,2-.35,3-.51l.32,2C96.76,4.15,95.77,4.32,94.8,4.5Zm44.63-.91c-1-.16-2-.31-3-.45l.28-2c1,.14,2,.29,3,.46Zm-38.71,0-.28-2,3-.4.24,2Zm6-.74-.21-2c1-.11,2-.2,3-.29l.18,2C108.67,2.6,107.67,2.69,106.67,2.8Zm26.85,0-3-.3.17-2c1,.09,2,.19,3,.3Zm-20.88-.49-.13-2c1-.07,2-.12,3-.17l.09,2C114.65,2.15,113.65,2.21,112.64,2.28Zm14.93,0c-1-.07-2-.12-3-.15l.07-2c1,0,2,.09,3,.15ZM118.62,2l0-2h3l0,2C120.62,2,119.64,2,118.62,2Z"/><path class="cls-1" d="M223.42,181.19l-1.73-1c.5-.85,1-1.72,1.49-2.59l1.75,1C224.44,179.44,223.93,180.31,223.42,181.19Zm3-5.31-1.78-.94c.47-.88.92-1.76,1.36-2.66l1.8.89C227.31,174.08,226.85,175,226.38,175.88Zm2.69-5.45-1.82-.84c.42-.91.82-1.82,1.22-2.73l1.85.8C229.91,168.59,229.5,169.51,229.07,170.43Zm2.42-5.58-1.87-.75q.56-1.38,1.08-2.79l1.88.7C232.23,163,231.86,163.91,231.49,164.85Zm2.12-5.7-1.9-.65c.32-.94.64-1.89.94-2.84l1.91.61C234.26,157.24,233.94,158.2,233.61,159.15Zm1.83-5.79-1.93-.56c.27-1,.54-1.91.79-2.88l1.95.51C236,151.41,235.72,152.39,235.44,153.36Zm1.53-5.88L235,147c.22-1,.44-1.94.64-2.92l2,.41Q237.32,146,237,147.48Zm1.24-5.95-2-.36c.17-1,.34-2,.49-2.95l2,.31C238.55,139.53,238.39,140.53,238.21,141.53Zm.92-6-2-.25c.13-1,.24-2,.34-3l2,.2C239.38,133.51,239.26,134.52,239.13,135.52Zm.63-6-2-.16c.08-1,.14-2,.19-3l2,.11C239.9,127.46,239.83,128.47,239.76,129.48Zm.31-6.07-2,0c0-1,.05-2,.05-3h2C240.12,121.39,240.1,122.4,240.07,123.41Zm-2-6c0-1-.06-2-.1-3l2-.1c.05,1,.09,2,.11,3Zm-.28-6c-.08-1-.16-2-.26-3l2-.19c.1,1,.19,2,.26,3Zm-.59-6c-.12-1-.25-2-.4-3l2-.3c.15,1,.29,2,.41,3Zm-.88-5.91c-.17-1-.36-2-.55-2.94l2-.4c.2,1,.39,2,.56,3Zm-1.18-5.86c-.22-1-.46-2-.7-2.91l2-.5c.25,1,.48,2,.71,3Zm-1.48-5.8c-.27-1-.55-1.91-.85-2.86l1.92-.6c.3,1,.59,1.94.87,2.92Z"/><rect class="cls-1" x="216" y="10.32" width="2.01" height="5.03"/><rect class="cls-1" x="216" y="23.38" width="2.01" height="5.03"/><rect class="cls-1" x="207.96" y="18.36" width="5.03" height="2.01"/><rect class="cls-1" x="221.02" y="18.36" width="5.03" height="2.01"/><path class="cls-1" d="M92.54,185.45a35.72,35.72,0,0,1-20.05-5.92c-5.55-3.85-8.93-9.08-9.5-14.74a1.42,1.42,0,1,1,2.83-.29c1,10.08,12.76,18,26.72,18.1s25.69-8,26.71-18.1a1.42,1.42,0,1,1,2.83.29c-.57,5.66-3.94,10.89-9.5,14.74A35.71,35.71,0,0,1,92.54,185.45Z"/><path class="cls-1" d="M71.46,142a42.58,42.58,0,0,0,2.14,3.9l-.76,3.93-1.42,7.31c-.57,3-2.5,5.35-5.64,7.09a19.4,19.4,0,0,1-2.71,1.22,23.17,23.17,0,0,1-2.51.77l-8.93,2.2-5.29,1.3a41.8,41.8,0,0,0-7.48,2.86c-.75.38-1.5.79-2.23,1.21-10.18,6-16.26,15.67-16.26,26v34a1.43,1.43,0,0,1-2.85,0v-34c0-11.34,6.61-22,17.67-28.46a44.25,44.25,0,0,1,4-2A43.11,43.11,0,0,1,45.61,167h0l3.73-.92.18,0h0l10.29-2.53c3.56-.91,8-2.85,8.76-6.86l2-10.19Z"/><path class="cls-1" d="M165.35,188.63V232.9a1.44,1.44,0,0,1-.65-1.2V199.81a26.92,26.92,0,0,0-2.2-10.61,33.3,33.3,0,0,0-14.06-15.38c-1.14-.66-2.32-1.27-3.52-1.82a40.17,40.17,0,0,0-6.19-2.25l-6.83-1.68-7.37-1.81a24.27,24.27,0,0,1-2.53-.77,17.76,17.76,0,0,1-2.71-1.22c-3.11-1.72-5.07-4.15-5.64-7.1l-1.42-7.3-.76-3.94a41.29,41.29,0,0,0,2.14-3.9l.86,4.41,2,10.19c.61,3.15,3.8,5.65,8.76,6.86l7.14,1.75,1.54.38h0l.2,0h0l5.32,1.31h0a42.34,42.34,0,0,1,5,1.7c.76.31,1.52.65,2.26,1,1.07.51,2.11,1.06,3.14,1.65a37.56,37.56,0,0,1,12.62,11.83A31.8,31.8,0,0,1,165.35,188.63Z"/><path class="cls-1" d="M145.35,169.7a1.43,1.43,0,0,0-.87-1,68.73,68.73,0,0,0-7.55-2.27c-.91-.24-1.85-.48-2.82-.75h0l-.1,0-.1,0h0a1.45,1.45,0,0,0-1.12.26h0a1.4,1.4,0,0,0-.54.88c0,.14-.15.59-.32,1.3-1.27,5.12-5.93,23.62-8.14,32.39H61.26c-1.48-4.92-7.9-26.27-9.63-32-.25-.83-.4-1.34-.42-1.42a1.41,1.41,0,0,0-.51-.74,1.43,1.43,0,0,0-1.13-.27h0l-.09,0-.09,0c-.84.23-1.56.41-2.26.59a46.13,46.13,0,0,0-7.92,2.65l-.1,0a1.43,1.43,0,0,0-.71,1.69l.48,1.57,11,36v25.21a1.43,1.43,0,0,0,2.85,0V208.36a1.54,1.54,0,0,0-.07-.42l-11.14-36.5a44.31,44.31,0,0,1,6.33-2l1.07-.27c.58,2,1.87,6.27,4.78,15.92l5.18,17.22a1.41,1.41,0,0,0,1.36,1h64.67a1.43,1.43,0,0,0,1.39-1.08c5.68-22.52,7.68-30.53,8.39-33.45l1.57.41c2.06.53,4,1,6,1.74L132.44,208a1.42,1.42,0,0,0-.05.36v25.52a1.43,1.43,0,1,0,2.85,0V208.55L144.92,172l.43-1.6A1.38,1.38,0,0,0,145.35,169.7Z"/><path class="cls-1" d="M68,132.64l-.07,0a2.65,2.65,0,0,1-.88.13,4.19,4.19,0,0,1-2.12-.64,11.4,11.4,0,0,1-4.55-6.39c-1.44-4.58-.43-9.16,2.22-10a2.13,2.13,0,0,1,.42-.1h0a2.32,2.32,0,0,1,.46,0,4.41,4.41,0,0,1,2.38.81l0,0,0-1.14c0-.69,0-1.37,0-2l-.1,0a6.34,6.34,0,0,0-2.73-.43H63a5.27,5.27,0,0,0-1.22.24c-4.26,1.34-6,7.3-4.08,13.56,1.53,4.86,4.82,8.27,8.21,8.92a5.91,5.91,0,0,0,1.18.12,5.79,5.79,0,0,0,1.74-.27h0C68.51,134.49,68.24,133.57,68,132.64Z"/><path class="cls-1" d="M123.34,113.06a5.17,5.17,0,0,0-1.22-.24H122a6.38,6.38,0,0,0-2.73.43l-.1,0c0,.68,0,1.37,0,2.07l0,1.13s0,0,0,0a4.57,4.57,0,0,1,2.4-.82,2.25,2.25,0,0,1,.44,0h0a2.13,2.13,0,0,1,.42.1c2.65.83,3.67,5.41,2.22,10a11.46,11.46,0,0,1-4.55,6.4,4.27,4.27,0,0,1-2.11.63,3,3,0,0,1-.89-.13l-.07,0c-.25.93-.52,1.85-.81,2.74h0a5.79,5.79,0,0,0,2.92.15c3.39-.65,6.68-4.06,8.21-8.92C129.4,120.36,127.6,114.4,123.34,113.06Z"/><path class="cls-1" d="M113.24,106.55c-7.72-2.74-14-4-20.16-4a60.49,60.49,0,0,1,19.82,4c2.27.83,4.08,1.62,5.27,2.14.26.1.48.2.68.29,0,.14,0,.28,0,.42h.46l0-.49Q116.15,107.57,113.24,106.55Zm-33.87-2.32a.28.28,0,0,1-.13,0c-2.34.6-4.79,1.35-7.41,2.29-1.94.69-4,1.47-6.12,2.36v.49l.09,3.84,0,2.09c0-.69,0-1.37,0-2,0-1.32.14-2.61.27-3.88,0-.14,0-.28,0-.42l.68-.29c1.19-.52,3-1.31,5.27-2.14a60.44,60.44,0,0,1,19.83-4A51.88,51.88,0,0,0,79.37,104.23ZM66,120.65c-.1-1.38-.15-2.79-.16-4.2a4.41,4.41,0,0,0-2.38-.81,2.32,2.32,0,0,0-.46,0l.1,4.3h0a.31.31,0,0,0,0,.1,66.35,66.35,0,0,0,1.79,12.08,4.19,4.19,0,0,0,2.12.64,2.65,2.65,0,0,0,.88-.13l.07,0A62.81,62.81,0,0,1,66,120.65Zm47.22-14.1c-7.72-2.74-14-4-20.16-4a60.49,60.49,0,0,1,19.82,4c2.27.83,4.08,1.62,5.27,2.14.26.1.48.2.68.29,0,.14,0,.28,0,.42.13,1.27.22,2.57.27,3.88,0,.68,0,1.37,0,2.07l.05-2.11.09-3.84,0-.49Q116.15,107.57,113.24,106.55Zm-34-2.29c-2.34.6-4.79,1.35-7.41,2.29-1.94.69-4,1.47-6.12,2.36v.49l.09,3.84,0,2.09c0-.69,0-1.37,0-2,0-1.32.14-2.61.27-3.88,0-.14,0-.28,0-.42l.68-.29c1.19-.52,3-1.31,5.27-2.14a60.44,60.44,0,0,1,19.83-4,51.88,51.88,0,0,0-12.63,1.68A.28.28,0,0,1,79.24,104.26ZM65.86,116.45a4.41,4.41,0,0,0-2.38-.81,2.32,2.32,0,0,0-.46,0l.1,4.3h0a.31.31,0,0,0,0,.1,66.35,66.35,0,0,0,1.79,12.08,4.19,4.19,0,0,0,2.12.64,2.65,2.65,0,0,0,.88-.13l.07,0a62.81,62.81,0,0,1-2-12C65.92,119.27,65.87,117.86,65.86,116.45Zm56.2-.77v-.24c0-.89,0-1.76-.07-2.63,0-1.26-.14-2.51-.27-3.74,0-.43-.08-.85-.14-1.27a1.39,1.39,0,0,0-1-1.17l-1.24-.52-.08,0a87.19,87.19,0,0,0-10.37-3.84c-.48-.14-1-.28-1.46-.41-.94-.25-1.9-.49-2.89-.72A55.94,55.94,0,0,0,93.1,99.7h-.56a55.69,55.69,0,0,0-12.05,1.4c-1,.23-2,.47-2.89.72a83.33,83.33,0,0,0-11.83,4.25l-.08,0-1.25.52a1.41,1.41,0,0,0-.95,1.17c-.05.42-.1.84-.14,1.27-.12,1.23-.21,2.48-.27,3.74,0,.84-.06,1.69-.07,2.54V116c0,1.35,0,2.69.11,4h0a.31.31,0,0,0,0,.1,66.35,66.35,0,0,0,1.79,12.08c.28,1.15.6,2.27.94,3.38a51.31,51.31,0,0,0,4.74,10.9c.28.47.57.94.86,1.4.45.7.91,1.38,1.38,2,5.41,7.46,12.33,11.53,19.7,11.53s14.29-4.07,19.69-11.52c.47-.65.93-1.33,1.38-2,.29-.46.58-.93.86-1.4a51.31,51.31,0,0,0,4.74-10.9c.34-1.11.66-2.23.94-3.37a67,67,0,0,0,1.79-12,.49.49,0,0,0,0-.12s0-.08,0-.11c.07-1.3.1-2.61.1-3.93ZM113.61,142a41.29,41.29,0,0,1-2.14,3.9c-4.84,7.78-11.54,12.61-18.93,12.61s-14.1-4.83-18.94-12.61a42.58,42.58,0,0,1-2.14-3.9,50.92,50.92,0,0,1-2.66-6.65c-.29-.89-.56-1.81-.81-2.74a62.81,62.81,0,0,1-2-12c-.1-1.38-.15-2.79-.16-4.2v-1.12c0-.69,0-1.37,0-2,0-1.32.14-2.61.27-3.88,0-.14,0-.28,0-.42l.68-.29c1.19-.52,3-1.31,5.27-2.14a60.44,60.44,0,0,1,19.83-4h1.08a60.49,60.49,0,0,1,19.82,4c2.27.83,4.08,1.62,5.27,2.14.26.1.48.2.68.29,0,.14,0,.28,0,.42.13,1.27.22,2.57.27,3.88,0,.68,0,1.37,0,2.07,0,.2,0,.41,0,.61s0,.33,0,.5c0,1.41-.06,2.81-.16,4.18a62.78,62.78,0,0,1-2,12c-.25.93-.52,1.85-.81,2.74A48.26,48.26,0,0,1,113.61,142ZM66,120.65c-.1-1.38-.15-2.79-.16-4.2a4.41,4.41,0,0,0-2.38-.81,2.32,2.32,0,0,0-.46,0l.1,4.3h0a.31.31,0,0,0,0,.1,66.35,66.35,0,0,0,1.79,12.08,4.19,4.19,0,0,0,2.12.64,2.65,2.65,0,0,0,.88-.13l.07,0A62.81,62.81,0,0,1,66,120.65Zm13.35-16.42a.28.28,0,0,1-.13,0c-2.34.6-4.79,1.35-7.41,2.29-1.94.69-4,1.47-6.12,2.36v.49l.09,3.84,0,2.09c0-.69,0-1.37,0-2,0-1.32.14-2.61.27-3.88,0-.14,0-.28,0-.42l.68-.29c1.19-.52,3-1.31,5.27-2.14a60.44,60.44,0,0,1,19.83-4A51.88,51.88,0,0,0,79.37,104.23Zm33.87,2.32c-7.72-2.74-14-4-20.16-4a60.49,60.49,0,0,1,19.82,4c2.27.83,4.08,1.62,5.27,2.14.26.1.48.2.68.29,0,.14,0,.28,0,.42.13,1.27.22,2.57.27,3.88,0,.68,0,1.37,0,2.07l.05-2.11.09-3.84,0-.49Q116.15,107.57,113.24,106.55ZM66,120.65c-.1-1.38-.15-2.79-.16-4.2a4.41,4.41,0,0,0-2.38-.81,2.32,2.32,0,0,0-.46,0l.1,4.3h0a.31.31,0,0,0,0,.1,66.35,66.35,0,0,0,1.79,12.08,4.19,4.19,0,0,0,2.12.64,2.65,2.65,0,0,0,.88-.13l.07,0A62.81,62.81,0,0,1,66,120.65Z"/><path class="cls-1" d="M112.21,74.22A58.08,58.08,0,0,0,105,71l-.15,0a35.41,35.41,0,0,0-24.68,0h0L80,71h0a57,57,0,0,0-7.17,3.22A18.92,18.92,0,0,0,62.84,91V108a1.42,1.42,0,0,0,1.42,1.43h56.55a1.44,1.44,0,0,0,1.43-1.43V91A18.91,18.91,0,0,0,112.21,74.22Zm7.18,32.33H65.69V91a16.08,16.08,0,0,1,8.5-14.29c1.68-.89,3.3-1.65,4.87-2.3,1-.42,2-.78,2.92-1.1a31.46,31.46,0,0,1,10.54-1.77h0a31.56,31.56,0,0,1,10.55,1.77c1,.32,1.92.68,2.91,1.09,1.57.66,3.19,1.42,4.87,2.31A16.07,16.07,0,0,1,119.39,91Z"/><path class="cls-1" d="M121.37,106.66l-2-.82a102.82,102.82,0,0,0-11.92-4.09c-1-.26-1.94-.5-2.89-.71A54,54,0,0,0,93.1,99.7h-.89A53.07,53.07,0,0,0,80.49,101c-.95.21-1.91.44-2.89.71a102.71,102.71,0,0,0-11.91,4.09l-2,.82a1.42,1.42,0,0,0-.87,1.31v0l.11,4.81.06,2.53v.33l.1,4.3h0a.31.31,0,0,0,0,.1,1.42,1.42,0,0,0,.78,1.15,1.46,1.46,0,0,0,1.47-.12l.64-.46c-.1-1.38-.15-2.79-.16-4.2l0,0,0-1.14,0-2.09-.09-3.84v-.49c2.14-.89,4.18-1.67,6.12-2.36,2.62-.94,5.07-1.69,7.41-2.29a.28.28,0,0,0,.13,0A51.88,51.88,0,0,1,92,102.55h1.08c6.14,0,12.44,1.26,20.16,4q2.91,1,6.13,2.36l0,.49-.09,3.84-.05,2.11,0,1.13s0,0,0,0c0,1.41-.06,2.81-.16,4.18l.64.47a1.43,1.43,0,0,0,2.25-1,.49.49,0,0,0,0-.12v-.11l.09-4.21v-.24l.06-2.62.12-4.81v0A1.43,1.43,0,0,0,121.37,106.66ZM92.55,107h-.27A33.21,33.21,0,0,0,80,109.4h25.07A32.87,32.87,0,0,0,92.55,107Z"/><path class="cls-1" d="M79,104.29h-.08a1.42,1.42,0,0,1-1.35-1.5l1.64-30.56a1.43,1.43,0,1,1,2.85.15l-1.64,30.56A1.43,1.43,0,0,1,79,104.29Z"/><path class="cls-1" d="M106.1,104.29a1.43,1.43,0,0,1-1.42-1.35l-1.63-30.56a1.42,1.42,0,1,1,2.84-.15l1.64,30.56a1.42,1.42,0,0,1-1.35,1.5Z"/><path class="cls-1" d="M193.13,131.29a1.43,1.43,0,0,1-1.09-1.7l.25-1.12H135.64l.29,1a1.41,1.41,0,0,1-1,1.75,1.32,1.32,0,0,1-.39.06h58.87A1.53,1.53,0,0,1,193.13,131.29Zm0,0a1.43,1.43,0,0,1-1.09-1.7l.25-1.12H135.64l.29,1a1.41,1.41,0,0,1-1,1.75,1.32,1.32,0,0,1-.39.06h58.87A1.53,1.53,0,0,1,193.13,131.29Zm0,0a1.43,1.43,0,0,1-1.09-1.7l.25-1.12H135.64l.29,1a1.41,1.41,0,0,1-1,1.75,1.32,1.32,0,0,1-.39.06h58.87A1.53,1.53,0,0,1,193.13,131.29ZM208,109a.28.28,0,0,0,0-.09l0-.07,0-.09a.41.41,0,0,0,0-.08l0-.06-.06-.11-.05-.07a.36.36,0,0,0-.07-.1.39.39,0,0,0-.08-.1.94.94,0,0,1-.1-.1l-.06,0h0l-.06,0-.1-.06-.1-.06-.23-.08-.1,0-.18,0h-78a1.32,1.32,0,0,0-.39.06l-.19.07-.08,0-.08,0-.1.07,0,0a.6.6,0,0,0-.08.08l0,0-.12.14,0,0-.07.1a1,1,0,0,0-.07.15l0,.05s0,0,0,0a1.67,1.67,0,0,0-.08.32,1.29,1.29,0,0,0,0,.55l5.33,18.91.51,1.81a.88.88,0,0,0,.05.15s0,0,0,0a.61.61,0,0,0,.07.14l.09.14.06.07.05.06.09.08a1.36,1.36,0,0,0,.38.24l.09,0h0l.08,0,.12,0h66.45a1.2,1.2,0,0,0,.42-.07l.07,0,.15-.07.06,0a1.29,1.29,0,0,0,.3-.22l.05-.06a1.08,1.08,0,0,0,.18-.24l.06-.11a1.43,1.43,0,0,0,.08-.22l.51-1.81L208,109.56A1.48,1.48,0,0,0,208,109Zm-8.33,19.5H135.64l-5-17.87h74.15Zm-6.58,2.82a1.43,1.43,0,0,1-1.09-1.7l.25-1.12H135.64l.29,1a1.41,1.41,0,0,1-1,1.75,1.32,1.32,0,0,1-.39.06h58.87A1.53,1.53,0,0,1,193.13,131.29Zm0,0a1.43,1.43,0,0,1-1.09-1.7l.25-1.12H135.64l.29,1a1.41,1.41,0,0,1-1,1.75,1.32,1.32,0,0,1-.39.06h58.87A1.53,1.53,0,0,1,193.13,131.29Zm0,0a1.43,1.43,0,0,1-1.09-1.7l.25-1.12H135.64l.29,1a1.41,1.41,0,0,1-1,1.75,1.32,1.32,0,0,1-.39.06h58.87A1.53,1.53,0,0,1,193.13,131.29Z"/><path class="cls-1" d="M172.86,139.27v93.89a1.43,1.43,0,0,1-2.85,0V140.7h-4.66v92.46a1.43,1.43,0,0,1-2.85,0V139.27a1.41,1.41,0,0,1,1.42-1.42h7.51A1.42,1.42,0,0,1,172.86,139.27Z"/><line class="cls-2" x1="200.79" y1="129.89" x2="206.63" y2="109.18"/><path class="cls-1" d="M200.79,131.32a1.74,1.74,0,0,1-.39,0,1.44,1.44,0,0,1-1-1.76l5.84-20.72a1.43,1.43,0,0,1,2.75.77l-5.85,20.72A1.42,1.42,0,0,1,200.79,131.32Z"/><line class="cls-2" x1="193.43" y1="129.89" x2="197.98" y2="109.18"/><path class="cls-1" d="M193.43,131.32a1.53,1.53,0,0,1-.3,0,1.43,1.43,0,0,1-1.09-1.7l4.55-20.72a1.42,1.42,0,0,1,2.78.61l-4.55,20.72A1.41,1.41,0,0,1,193.43,131.32Z"/><line class="cls-2" x1="186.07" y1="129.89" x2="189.32" y2="109.18"/><path class="cls-1" d="M186.08,131.32l-.23,0a1.42,1.42,0,0,1-1.18-1.63L187.91,109a1.43,1.43,0,0,1,2.82.44l-3.25,20.71A1.42,1.42,0,0,1,186.08,131.32Z"/><line class="cls-2" x1="178.71" y1="129.89" x2="180.66" y2="109.18"/><path class="cls-1" d="M178.72,131.32h-.14a1.42,1.42,0,0,1-1.28-1.55L179.24,109a1.43,1.43,0,0,1,2.84.27l-2,20.72A1.42,1.42,0,0,1,178.72,131.32Z"/><line class="cls-2" x1="171.36" y1="129.89" x2="172.01" y2="109.18"/><path class="cls-1" d="M171.36,131.32h-.05a1.43,1.43,0,0,1-1.38-1.47l.65-20.72a1.43,1.43,0,1,1,2.85.09l-.65,20.72A1.42,1.42,0,0,1,171.36,131.32Z"/><line class="cls-2" x1="164" y1="129.89" x2="163.35" y2="109.18"/><path class="cls-1" d="M164,131.32a1.43,1.43,0,0,1-1.43-1.38l-.65-20.72a1.44,1.44,0,0,1,1.38-1.47,1.42,1.42,0,0,1,1.47,1.38l.65,20.72a1.42,1.42,0,0,1-1.38,1.47Z"/><line class="cls-2" x1="156.64" y1="129.89" x2="154.69" y2="109.18"/><path class="cls-1" d="M156.64,131.32a1.42,1.42,0,0,1-1.42-1.29l-1.95-20.72a1.43,1.43,0,0,1,2.84-.27l1.95,20.72a1.43,1.43,0,0,1-1.29,1.55Z"/><line class="cls-2" x1="149.28" y1="129.89" x2="146.03" y2="109.18"/><path class="cls-1" d="M149.28,131.32a1.43,1.43,0,0,1-1.41-1.21l-3.24-20.71a1.41,1.41,0,0,1,1.18-1.63,1.43,1.43,0,0,1,1.63,1.19l3.25,20.71a1.43,1.43,0,0,1-1.19,1.63Z"/><line class="cls-2" x1="141.92" y1="129.89" x2="137.38" y2="109.18"/><path class="cls-1" d="M141.92,131.32a1.41,1.41,0,0,1-1.39-1.12L136,109.48a1.43,1.43,0,0,1,2.79-.61l4.54,20.72a1.43,1.43,0,0,1-1.08,1.7Z"/><line class="cls-2" x1="134.56" y1="129.89" x2="128.72" y2="109.18"/><path class="cls-1" d="M134.56,131.32a1.43,1.43,0,0,1-1.37-1l-5.84-20.72a1.42,1.42,0,0,1,2.74-.77l5.84,20.72a1.42,1.42,0,0,1-1,1.76A1.74,1.74,0,0,1,134.56,131.32Z"/><path class="cls-1" d="M202.91,128.47H132.45a1.43,1.43,0,0,0-1.43,1.42v1.6a9.15,9.15,0,0,0,1.33,4.75,6.9,6.9,0,0,0,.42.63,9.17,9.17,0,0,0,7.45,3.83h54.91a9.22,9.22,0,0,0,9.2-9.21v-1.6A1.43,1.43,0,0,0,202.91,128.47Zm-1.43,3a6.36,6.36,0,0,1-6.35,6.36H140.22a6.36,6.36,0,0,1-6.35-6.36v-.17h67.61Z"/><rect class="cls-1" x="14.8" y="233.3" width="175.89" height="2.01"/></g></g></svg>