<svg xmlns="http://www.w3.org/2000/svg" viewBox="0 0 226.92 240.86"><defs><style>.cls-1{fill:#0797bc;}</style></defs><g id="Layer_2" data-name="Layer 2"><g id="Layer_1-2" data-name="Layer 1"><path class="cls-1" d="M87.45,2c-1,.05-2,.12-3,.21l-.17-2q1.52-.12,3-.21Zm-6,.49c-1,.11-2,.23-3,.36l-.27-2c1-.13,2-.26,3-.37Zm-5.92.8-2.94.51-.37-2c1-.18,2-.35,3-.51ZM69.7,4.4c-1,.2-2,.42-2.92.66l-.47-2c1-.24,2-.46,3-.67ZM63.89,5.79c-1,.26-1.92.52-2.88.81l-.57-1.93c1-.29,2-.56,2.93-.82ZM58.15,7.48c-.94.3-1.89.62-2.83.95l-.66-1.9c1-.33,1.91-.66,2.88-1Z"/><path class="cls-1" d="M219.27,129.23l-2-.13c.06-1,.11-2,.15-3l2,.07C219.39,127.21,219.34,128.22,219.27,129.23Zm.23-6.08-2,0c0-1,0-2,0-3l2,0C219.51,121.13,219.51,122.14,219.5,123.15Zm-.08-6.07-2,.07c0-1-.09-2-.15-3l2-.13C219.33,115.05,219.38,116.06,219.42,117.08ZM219,111l-2,.18q-.14-1.48-.3-3l2-.24C218.84,109,218.94,110,219,111Zm-.69-6-2,.28c-.14-1-.29-2-.46-3l2-.33C218,103,218.2,104,218.34,105Zm-1-6-2,.38c-.19-1-.39-2-.61-2.93l2-.43C216.94,97,217.14,98,217.33,99ZM216,93l-2,.48c-.24-1-.49-1.93-.75-2.89l1.94-.53C215.53,91.08,215.78,92.06,216,93Zm-1.6-5.86-1.93.58q-.44-1.42-.9-2.85l1.91-.63C213.82,85.25,214.12,86.21,214.42,87.18Zm-1.91-5.77-1.89.68c-.34-.94-.68-1.87-1-2.8l1.87-.73C211.82,79.51,212.17,80.46,212.51,81.41Zm-2.19-5.66-1.86.77c-.38-.92-.77-1.83-1.18-2.74l1.84-.82Q209.74,74.34,210.32,75.75Zm-2.48-5.55-1.81.86c-.43-.89-.87-1.79-1.32-2.68l1.79-.91C207,68.38,207.41,69.29,207.84,70.2Zm-4.51-4.47c-.48-.88-1-1.75-1.46-2.61l1.75-1c.5.88,1,1.76,1.47,2.66Zm-3-5.19c-.52-.86-1.05-1.7-1.58-2.54l1.69-1.09c.54.86,1.08,1.72,1.61,2.59Zm-3.23-5c-.56-.83-1.13-1.65-1.7-2.46l1.63-1.16q.88,1.23,1.74,2.49Zm-3.47-4.87c-.6-.79-1.21-1.58-1.83-2.36L193.4,47q.94,1.18,1.86,2.4ZM189.94,46c-.64-.77-1.29-1.52-1.95-2.27l1.51-1.33q1,1.14,2,2.31ZM186,41.46c-.68-.73-1.37-1.45-2.06-2.16l1.44-1.41c.7.73,1.4,1.46,2.09,2.21Z"/><rect class="cls-1" x="10.32" y="237.98" width="166.94" height="2.81"/><path class="cls-1" d="M51.44,240.86A14.88,14.88,0,0,1,36.58,226V179.27c0-19.63,16.16-37.85,35.29-39.78a39,39,0,0,1,30.51,10,39.47,39.47,0,0,1,13,29.23V213.6h-2.81V178.68a36.67,36.67,0,0,0-12.06-27.15,36.31,36.31,0,0,0-28.33-9.24c-17.76,1.79-32.77,18.73-32.77,37V226a12.06,12.06,0,0,0,12,12Z"/><path class="cls-1" d="M91.38,228.6H60.55a11.79,11.79,0,0,1-11.78-11.78V179.35a28.13,28.13,0,0,1,7.29-18.85l2.09,1.89a25.26,25.26,0,0,0-6.57,17v37.47a9,9,0,0,0,9,9H91.38a9,9,0,0,0,9-9V178.66a24.25,24.25,0,0,0-6.69-16.76l2-1.93a27,27,0,0,1,7.47,18.69v38.16A11.8,11.8,0,0,1,91.38,228.6Z"/><path class="cls-1" d="M75.83,180.1a13.54,13.54,0,1,1,13.54-13.54A13.55,13.55,0,0,1,75.83,180.1Zm0-24.26a10.73,10.73,0,1,0,10.73,10.72A10.74,10.74,0,0,0,75.83,155.84Z"/><path class="cls-1" d="M30,238.92H27.2V207.51a7.45,7.45,0,0,1,2.3-5.8c1.84-1.6,4.66-2.16,8.39-1.66l-.37,2.79c-2.89-.39-5-.06-6.17,1A4.67,4.67,0,0,0,30,207.51Z"/><rect class="cls-1" x="63.78" y="191.09" width="24.39" height="2.81"/><rect class="cls-1" x="66.59" y="201.4" width="18.76" height="2.81"/><path class="cls-1" d="M88.16,142.32H85.35v-8.17A2.16,2.16,0,0,0,83.19,132H68.74a2.16,2.16,0,0,0-2.15,2.15v8.17H63.78v-8.17a5,5,0,0,1,5-5H83.19a5,5,0,0,1,5,5Z"/><rect class="cls-1" x="141.62" y="162.01" width="2.81" height="44.19"/><path class="cls-1" d="M144.44,132.94h-2.82v-18.7a34.23,34.23,0,0,0-36.35-34.17c-17.41,1.05-32.11,17-32.11,34.82v13.36H70.34V114.89c0-19.26,15.92-36.5,34.76-37.63a37.06,37.06,0,0,1,39.34,37Z"/><path class="cls-1" d="M135.06,132.94h-2.82V114.61c0-11.78-9.56-23.36-20.89-25.29a25.36,25.36,0,0,0-29.75,25v14.92H78.78V114.27a28.17,28.17,0,0,1,33-27.72c12.81,2.18,23.24,14.77,23.24,28.06Z"/><rect class="cls-1" x="132.24" y="162.01" width="2.81" height="43.87"/><path class="cls-1" d="M164.13,238h-2.81V226.5a.71.71,0,0,0-.71-.71H139.75V223h20.86a3.53,3.53,0,0,1,3.52,3.52Z"/><path class="cls-1" d="M115.36,238h-2.81V226.5a3.53,3.53,0,0,1,3.52-3.52h14.3V206.56a1.4,1.4,0,0,1,1.4-1.4H144a1.4,1.4,0,0,1,1.4,1.4v17.35h-2.81V208h-9.38v16.41a1.41,1.41,0,0,1-1.41,1.41h-15.7a.71.71,0,0,0-.71.71Z"/><rect class="cls-1" x="132.24" y="132.94" width="12.19" height="2.81"/><rect class="cls-1" x="132.24" y="142.32" width="12.19" height="2.81"/><rect class="cls-1" x="132.24" y="151.7" width="12.19" height="2.81"/><rect class="cls-1" x="132.24" y="160.14" width="12.19" height="2.81"/><path class="cls-1" d="M1.88,210.78H0V60.72a.94.94,0,0,1,.94-.94H75a.94.94,0,0,1,.94.94V88.86H74.09V61.66H1.88Z"/><path class="cls-1" d="M7.5,60.72H5.63V42.9A.94.94,0,0,1,6.57,42H44.08v1.88H7.5Z"/><path class="cls-1" d="M70.34,60.72H68.47V43.84H57.21V42H69.4a.94.94,0,0,1,.94.94Z"/><path class="cls-1" d="M65.65,42.9H63.78V25.08H13.13v15H11.25v-16a.94.94,0,0,1,.94-.93H64.71a.94.94,0,0,1,.94.93Z"/><rect class="cls-1" x="36.58" y="8.2" width="1.88" height="15.55"/><path class="cls-1" d="M61.9,84.17H60V75.73H53.46V73.85H61a.94.94,0,0,1,.94.94Z"/><path class="cls-1" d="M61.9,105.74H60V97.3H53.46V95.42H61a.94.94,0,0,1,.94.94Z"/><path class="cls-1" d="M61.9,127.31H60v-8.44H53.46V117H61a.94.94,0,0,1,.94.94Z"/><path class="cls-1" d="M40.33,84.17H38.45V75.73H31.89V73.85h7.5a.94.94,0,0,1,.94.94Z"/><path class="cls-1" d="M40.33,105.74H38.45V97.3H31.89V95.42h7.5a.94.94,0,0,1,.94.94Z"/><path class="cls-1" d="M40.33,127.31H38.45v-8.44H31.89V117h7.5a.94.94,0,0,1,.94.94Z"/><path class="cls-1" d="M40.33,148.88H38.45v-8.44H31.89v-1.87h7.5a.94.94,0,0,1,.94.93Z"/><path class="cls-1" d="M15.94,192H14.07v-2.82h1.87Zm0-5.63H14.07v-2.82h1.87Zm0-5.63H14.07V178h1.87Zm0-5.63H14.07v-2.81h1.87Zm0-5.62H14.07V166.7h1.87Zm0-5.63H14.07v-2.81h1.87Zm0-5.63H14.07v-2.81h1.87Zm0-5.63H14.07v-2.81h1.87Zm0-5.62H14.07v-2.82h1.87Zm0-5.63H14.07v-2.81h1.87Zm0-5.63H14.07v-2.81h1.87Zm0-5.63H14.07v-2.81h1.87Zm0-5.62H14.07v-2.82h1.87Zm0-5.63H14.07v-2.81h1.87Zm0-5.63H14.07v-2.81h1.87Zm0-5.62H14.07V104.8h1.87Zm0-5.63H14.07V99.17h1.87Zm0-5.63H14.07V93.55h1.87Zm0-5.63H14.07V87.92h1.87Zm0-5.62H14.07V82.29h1.87Zm0-5.63H14.07V76.67h1.87Zm0-5.63H14.07V71h1.87Z"/><path class="cls-1" d="M200.35,183.57l-.46-1.82,23-5.78a2.74,2.74,0,0,0,1.73-1.33,3.09,3.09,0,0,0,.3-2.29c-.3-1.21-2.88-2.23-5.88-1.8l-.27-1.86c3.4-.49,7.31.57,8,3.2a5,5,0,0,1-.49,3.68,4.63,4.63,0,0,1-2.9,2.22Z"/><path class="cls-1" d="M179.08,203.09a39.55,39.55,0,0,1-10.42-1.3l.51-1.81a41.86,41.86,0,0,0,14.37,1l27.89-7a2.53,2.53,0,0,0,1.68-3.13,8.29,8.29,0,0,0-2.77-2.68l1-1.61c1.09.66,3.28,2.45,3.63,3.83a4.4,4.4,0,0,1-3.05,5.41l-27.94,7-.11,0A40.72,40.72,0,0,1,179.08,203.09Z"/><path class="cls-1" d="M196.11,176.47l-.45-1.82,22-5.53a3.18,3.18,0,0,0,2.5-3.1,2.9,2.9,0,0,0-1.18-2.25,3.22,3.22,0,0,0-2.71-.54l-16.18,4.07-.45-1.82,16.18-4.06a5.05,5.05,0,0,1,4.29.85,4.83,4.83,0,0,1,1.93,3.68,5.08,5.08,0,0,1-3.92,5Z"/><path class="cls-1" d="M197.9,191.59l-.46-1.82,23.46-5.89a3,3,0,0,0,2-3.63c-.24-.95-1.33-1.47-2-1.7l.64-1.76a4.53,4.53,0,0,1,3.14,3,4.83,4.83,0,0,1-3.4,5.91Z"/><path class="cls-1" d="M184.38,157l-1.63-.93,11.8-20.59a3,3,0,0,0-1.21-4c-1.22-.7-3.61.07-5.23,2.33l-1.52-1.1c2.07-2.89,5.45-4.14,7.69-2.86a4.82,4.82,0,0,1,1.89,6.54Z"/><path class="cls-1" d="M161,214.06a1,1,0,0,1-.53-.16l-10.72-7.24,1-1.56,9.88,6.68,9.71-17a13,13,0,0,1,4.16-3.93,41.86,41.86,0,0,0,10.7-9.66l14.29-24.94a2.3,2.3,0,0,0,.18-1.82,2.7,2.7,0,0,0-1.27-1.57,5.86,5.86,0,0,0-3.34,0l-.49-1.81c1.47-.4,3.64-.47,4.76.17a4.6,4.6,0,0,1,2.13,2.64,4.14,4.14,0,0,1-.34,3.31l-14.32,25a.36.36,0,0,1-.07.1,43.14,43.14,0,0,1-11.28,10.2,11.08,11.08,0,0,0-3.52,3.3l-10.17,17.83a.94.94,0,0,1-.6.45A.76.76,0,0,1,161,214.06Z"/><path class="cls-1" d="M148.22,179.41l-1.52-1.1a13.77,13.77,0,0,0,2.52-10l-.14-1c-.53-4-.92-6.82-.28-9,.12-.41,3.22-9.91,4.14-12.65A4.42,4.42,0,0,1,157.8,143c.86.14,3.69,1,3.63,5.47a.41.41,0,0,1,0,.11c-.52,3.94-1.33,10.5-1.28,11.29,0,.45.07,1.13.61,1.27a1,1,0,0,0,1.1-.52l17.3-30.19a5.06,5.06,0,0,1,3.6-2.5,4.84,4.84,0,0,1,4,1.16,5.08,5.08,0,0,1,.87,6.29l-11.29,19.7-1.63-.93L186,134.47a3.19,3.19,0,0,0-.49-3.95,2.94,2.94,0,0,0-2.44-.71,3.18,3.18,0,0,0-2.27,1.58l-17.29,30.19a2.78,2.78,0,0,1-5.23-1.64c-.06-1.13,1.05-9.66,1.3-11.52,0-2-.74-3.32-2.08-3.54a2.54,2.54,0,0,0-2.76,1.43c-1,2.93-4,12.2-4.12,12.59-.52,1.79-.16,4.49.34,8.22l.13,1A15.61,15.61,0,0,1,148.22,179.41Z"/><path class="cls-1" d="M188.45,164.31l-1.63-.94,12-21a2.77,2.77,0,0,0,.23-2.17,3.08,3.08,0,0,0-1.44-1.81,3.42,3.42,0,0,0-2.86.1l-.84-1.68a5.27,5.27,0,0,1,4.64-.05,5,5,0,0,1,2.3,2.91,4.62,4.62,0,0,1-.41,3.64Z"/><rect class="cls-1" x="160.17" y="203.21" width="1.88" height="5.34" transform="translate(-100 218.61) rotate(-54.75)"/><path class="cls-1" d="M130,54.33l-1-1.88a42.73,42.73,0,0,0,7.77-6.05l1.5,1.49A45.12,45.12,0,0,1,130,54.33Z"/><path class="cls-1" d="M115.7,49.35l-1.41-1.57a14,14,0,0,1,7-3.7l.33,2.09A12,12,0,0,0,115.7,49.35Z"/><path class="cls-1" d="M161.12,63h-.06c-11.8-.67-20.62-5.37-25.51-13.6l1.82-1.08c5.31,8.94,14.69,11.75,22.19,12.45-2.27-5.9-4.94-9.45-8.11-10.81l.84-2c4,1.73,7.22,6.17,9.83,13.58a1.05,1.05,0,0,1-1,1.41Z"/><path class="cls-1" d="M137.68,82.58a32.15,32.15,0,0,1-3.84-.27l.25-2.1c4.15.5,5.79.16,6.75-.19.3-.13,17.54-6.29,23-8.21a1.77,1.77,0,0,0,1.23-1.87,1.74,1.74,0,0,0-1-1c-6-1.84-16.5-.37-23.46.6-3.77.53-6.49.91-7.84.74-3.35-.43-7.68-1.85-14.49-4.75l.83-1.95c6.62,2.83,10.78,4.2,13.93,4.6a46.68,46.68,0,0,0,7.27-.73c7.58-1.06,18-2.51,24.38-.53a3.84,3.84,0,0,1,2.35,2.34c.63,1.93-.84,3.94-2.55,4.53-6,2.1-22.54,8-23,8.18A11.12,11.12,0,0,1,137.68,82.58Z"/><path class="cls-1" d="M134.94,70.33l-.32-2.09a4.08,4.08,0,0,0,2.89-1.71,2.81,2.81,0,0,0,.18-2.25,3.29,3.29,0,0,0-1.72-2l-2.09-1c-11.14-5.25-14.91-7-18.2-7-.09,0-9.23.65-17.7,9.16L96.48,62c9.2-9.24,19.07-9.79,19.17-9.79,3.8-.05,7.66,1.77,19.13,7.18l2.09,1a5.38,5.38,0,0,1,2.83,3.24,5,5,0,0,1-.35,3.93A6.11,6.11,0,0,1,134.94,70.33Z"/><path class="cls-1" d="M104.67,73,93.94,61.15l-7.63,7.12-1.45-1.55,8.42-7.85a1.06,1.06,0,0,1,1.5.06l11.46,12.63Z"/><path class="cls-1" d="M138.76,46.48a8.08,8.08,0,0,1-1.09-.07A8.33,8.33,0,0,1,131,41.22c-1.47-3.19-1.86-7.63-1.16-13.19C131.3,16.5,141.73,4.12,142.17,3.59a1.06,1.06,0,0,1,1.76.23c.3.61,7.33,15.2,5.88,26.72C148.54,40.63,144.45,46.48,138.76,46.48Zm4-40.19c-2.69,3.47-9.67,13.2-10.77,22-.64,5.09-.31,9.26,1,12.05a6.23,6.23,0,0,0,5,4c5,.63,8.57-4.48,9.77-14C148.82,21.47,144.47,10.32,142.72,6.29Z"/><path class="cls-1" d="M136.33,47.13c-4.78,0-9.41-4.53-12.8-12.77C119.11,23.62,122.07,7.7,122.2,7a1.06,1.06,0,0,1,1.64-.67,72,72,0,0,1,8.23,6.81l-1.46,1.53A73.67,73.67,0,0,0,124,9.1c-.63,4.35-1.9,16.25,1.48,24.46,3.66,8.9,8.44,12.9,13.11,11l.8,2A8,8,0,0,1,136.33,47.13Z"/><path class="cls-1" d="M132.82,46.45c-3.33-.56-7.09-2.48-11.2-5.71-9.12-7.18-14.36-22.5-14.58-23.15a1,1,0,0,1,1.09-1.39,70.14,70.14,0,0,1,9.63,1.66l-.5,2.06a76,76,0,0,0-7.63-1.42c1.59,4.1,6.33,15.09,13.3,20.58,3.82,3,7.27,4.79,10.24,5.29Z"/><path class="cls-1" d="M141,47.71a7.83,7.83,0,0,1-4.75-1.61l1.27-1.7c4,3,9.67.33,15.42-7.39,5.31-7.12,7-19,7.49-23.33a74.53,74.53,0,0,0-7.78,3.79l-1-1.84a71,71,0,0,1,9.66-4.56,1,1,0,0,1,1,.14,1.07,1.07,0,0,1,.43.92c-.05.68-1.12,16.84-8.06,26.15C150,44.45,145.2,47.71,141,47.71Z"/><path class="cls-1" d="M143.83,47.73c-.41,0-.81,0-1.21,0l.18-2.11c3,.25,6.78-.62,11.23-2.59,8.12-3.59,15.43-13.06,18-16.64a74.85,74.85,0,0,0-7.75-.51l0-2.12a72.56,72.56,0,0,1,9.74.77,1,1,0,0,1,.79.62,1,1,0,0,1-.08,1c-.37.57-9.24,14.12-19.86,18.82A28.31,28.31,0,0,1,143.83,47.73Z"/><rect class="cls-1" x="196.96" y="209.85" width="1.88" height="4.69"/><rect class="cls-1" x="196.96" y="222.98" width="1.88" height="4.69"/><rect class="cls-1" x="189.45" y="217.35" width="4.69" height="1.88"/><rect class="cls-1" x="202.58" y="217.35" width="4.69" height="1.88"/><path class="cls-1" d="M92.19,43.37,91.1,44.58A4.51,4.51,0,0,0,90,46.86l-.26,1.61-1.22-1.09a4.44,4.44,0,0,0-2.27-1.07l-1.61-.26,1.08-1.21a4.44,4.44,0,0,0,1.08-2.28L87.09,41,88.3,42a4.51,4.51,0,0,0,2.28,1.07Z"/><path class="cls-1" d="M91.38,22.13l.67,1.12a3.56,3.56,0,0,0,1.49,1.36l1.17.57-1.12.68a3.57,3.57,0,0,0-1.35,1.48l-.58,1.17L91,27.4A3.53,3.53,0,0,0,89.5,26l-1.17-.57,1.11-.68a3.53,3.53,0,0,0,1.36-1.48Z"/><path class="cls-1" d="M178.54,70.57l.76,1.94a5.85,5.85,0,0,0,2,2.55L183,76.28l-1.94.77a5.82,5.82,0,0,0-2.55,2l-1.22,1.7-.77-2a5.67,5.67,0,0,0-2-2.54L172.82,75l2-.76a5.69,5.69,0,0,0,2.54-2Z"/><path class="cls-1" d="M166.94,96.19l1.14,2.07a6.45,6.45,0,0,0,2.57,2.58l2.08,1.13-2.08,1.14a6.42,6.42,0,0,0-2.57,2.57l-1.14,2.07-1.13-2.07a6.42,6.42,0,0,0-2.57-2.57L161.16,102l2.08-1.13a6.45,6.45,0,0,0,2.57-2.58Z"/><path class="cls-1" d="M182,113l.63,1.15a3.64,3.64,0,0,0,1.43,1.43l1.16.63-1.16.63a3.58,3.58,0,0,0-1.43,1.43l-.63,1.15-.63-1.15a3.52,3.52,0,0,0-1.43-1.43l-1.15-.63,1.15-.63a3.58,3.58,0,0,0,1.43-1.43Z"/></g></g></svg>