<svg xmlns="http://www.w3.org/2000/svg" viewBox="0 0 254.17 239.89"><defs><style>.cls-1{fill:#0797bc;}.cls-2{opacity:0.3;}</style></defs><g id="Layer_2" data-name="Layer 2"><g id="Layer_1-2" data-name="Layer 1"><path class="cls-1" d="M194,92.2a2,2,0,0,1-.81-.18,1.86,1.86,0,0,1-.86-2.48L204.63,64a6.92,6.92,0,0,0-3.23-9.21L156.31,33.11a6.91,6.91,0,0,0-9.21,3.23l-20.3,41.6a1.86,1.86,0,1,1-3.34-1.62l20.3-41.6a10.61,10.61,0,0,1,14.16-5L203,51.45a10.62,10.62,0,0,1,5,14.16l-12.3,25.54A1.86,1.86,0,0,1,194,92.2Z"/><path class="cls-1" d="M147.48,176.88a10.6,10.6,0,0,1-4.59-1l-22.63-10.89a1.85,1.85,0,1,1,1.61-3.34l22.63,10.88a6.91,6.91,0,0,0,9.21-3.23L164.45,147a1.85,1.85,0,1,1,3.34,1.61l-10.73,22.24A10.64,10.64,0,0,1,147.48,176.88Z"/><path class="cls-1" d="M159.19,162.27a1.9,1.9,0,0,1-.8-.18l-33-15.88a1.85,1.85,0,1,1,1.61-3.34l33,15.87a1.86,1.86,0,0,1-.81,3.53Z"/><path class="cls-1" d="M204.73,68.19a1.9,1.9,0,0,1-.8-.18L145.49,39.9a1.86,1.86,0,0,1,1.61-3.35l58.44,28.11a1.86,1.86,0,0,1-.81,3.53Z"/><path class="cls-1" d="M131.13,158.39a1.81,1.81,0,0,1-.81-.19l-6.24-3a1.86,1.86,0,0,1,1.61-3.35l6.24,3a1.86,1.86,0,0,1-.8,3.53Z"/><path class="cls-1" d="M58.44,195.49a1.81,1.81,0,0,1-.81-.19,1.86,1.86,0,0,1-.87-2.47l17.65-36.7,7.09-39.48a21.68,21.68,0,0,1,9.21-17.2l37.5-26a10.75,10.75,0,0,1,15.14,2.92,10.77,10.77,0,0,1-2.56,14.51L113.72,111.1a57.21,57.21,0,0,1,10.42,17.12,43,43,0,0,1,2.79,19.93c-.87,8.19-4.27,16.15-10.12,23.66a1.86,1.86,0,0,1-2.93-2.29c5.42-6.94,8.57-14.26,9.35-21.76a39.2,39.2,0,0,0-2.56-18.21,52.75,52.75,0,0,0-11-17.36,1.82,1.82,0,0,1-.56-1.45,1.84,1.84,0,0,1,.74-1.37l28.74-21.46a7.05,7.05,0,0,0,1.67-9.5,7,7,0,0,0-9.91-1.92l-37.49,26a18,18,0,0,0-7.63,14.38,1.36,1.36,0,0,1,0,.29L78,157a2,2,0,0,1-.15.47L60.11,194.44A1.86,1.86,0,0,1,58.44,195.49Z"/><path class="cls-1" d="M184.13,112.67a10,10,0,0,1-9.6-7.31h0a10,10,0,0,1,6.94-12.29l16.41-4.55a10,10,0,1,1,5.34,19.23l-16.41,4.56A10.23,10.23,0,0,1,184.13,112.67Zm16.43-20.81a6.55,6.55,0,0,0-1.69.23l-16.41,4.56a6.28,6.28,0,0,0-4.36,7.72h0a6.27,6.27,0,0,0,7.72,4.36l16.41-4.56a6.27,6.27,0,0,0-1.67-12.31Z"/><path class="cls-1" d="M180.5,130.78a10,10,0,0,1-2.67-19.59l16.41-4.56a10,10,0,0,1,5.34,19.23l-16.41,4.56A10.27,10.27,0,0,1,180.5,130.78ZM196.91,110a6.48,6.48,0,0,0-1.68.23l-16.41,4.56a6.27,6.27,0,0,0,3.36,12.08l16.41-4.56A6.27,6.27,0,0,0,196.91,110Z"/><path class="cls-1" d="M171.07,150.36a10,10,0,0,1-2.66-19.6l16.41-4.56a10,10,0,0,1,5.35,19.23L173.76,150A10.32,10.32,0,0,1,171.07,150.36Zm16.42-20.81a6.44,6.44,0,0,0-1.67.22l-16.41,4.56a6.27,6.27,0,0,0-4.36,7.72h0a6.25,6.25,0,0,0,7.71,4.36l16.41-4.56a6.26,6.26,0,0,0-1.68-12.3Z"/><path class="cls-1" d="M90.55,238a1.9,1.9,0,0,1-.8-.18,1.85,1.85,0,0,1-.87-2.48l25.94-49.47a1.88,1.88,0,0,1,1.72-1.05,31.41,31.41,0,0,0,19.36-5.69,26.22,26.22,0,0,0,6.23-6.06,1.85,1.85,0,0,1,3.11,2,29,29,0,0,1-7,7,35.19,35.19,0,0,1-20.54,6.49L92.22,236.94A1.84,1.84,0,0,1,90.55,238Z"/><path class="cls-1" d="M239.59,167.79a1.66,1.66,0,0,1-.49-.07,1.85,1.85,0,0,1-1.3-2.28c.92-3.35,1.69-6.78,2.29-10.2a1.85,1.85,0,1,1,3.65.64c-.61,3.54-1.41,7.08-2.36,10.54A1.85,1.85,0,0,1,239.59,167.79Z"/><path class="cls-1" d="M29.45,166.3h-4a1.86,1.86,0,1,1,0-3.71h4a1.86,1.86,0,0,1,0,3.71Z"/><path class="cls-1" d="M44.79,166.3H40.33a1.86,1.86,0,0,1,0-3.71h4.46a1.86,1.86,0,1,1,0,3.71Z"/><g class="cls-2"><path class="cls-1" d="M35,176.08a1.86,1.86,0,0,1-1.85-1.86v-4a1.86,1.86,0,1,1,3.71,0v4A1.86,1.86,0,0,1,35,176.08Z"/></g><g class="cls-2"><path class="cls-1" d="M35,161.23a1.85,1.85,0,0,1-1.85-1.86v-4.45a1.86,1.86,0,1,1,3.71,0v4.45A1.86,1.86,0,0,1,35,161.23Z"/></g><path class="cls-1" d="M237,133.78h-4a1.86,1.86,0,0,1,0-3.72h4a1.86,1.86,0,0,1,0,3.72Z"/><path class="cls-1" d="M252.31,133.78h-4.46a1.86,1.86,0,0,1,0-3.72h4.46a1.86,1.86,0,0,1,0,3.72Z"/><path class="cls-1" d="M242.53,143.55a1.85,1.85,0,0,1-1.85-1.85v-4a1.86,1.86,0,1,1,3.71,0v4A1.85,1.85,0,0,1,242.53,143.55Z"/><path class="cls-1" d="M242.53,128.7a1.85,1.85,0,0,1-1.85-1.85v-4.46a1.86,1.86,0,0,1,3.71,0v4.46A1.85,1.85,0,0,1,242.53,128.7Z"/><path class="cls-1" d="M70.14,57.1h-4a1.86,1.86,0,1,1,0-3.71h4a1.86,1.86,0,0,1,0,3.71Z"/><path class="cls-1" d="M85.48,57.1H81a1.86,1.86,0,1,1,0-3.71h4.45a1.86,1.86,0,1,1,0,3.71Z"/><path class="cls-1" d="M75.71,66.88A1.86,1.86,0,0,1,73.85,65v-4a1.86,1.86,0,0,1,3.71,0v4A1.85,1.85,0,0,1,75.71,66.88Z"/><path class="cls-1" d="M75.71,52a1.86,1.86,0,0,1-1.86-1.86V45.72a1.86,1.86,0,1,1,3.71,0v4.45A1.85,1.85,0,0,1,75.71,52Z"/><path class="cls-1" d="M55.14,141.07a6,6,0,1,1,6-6A6,6,0,0,1,55.14,141.07Zm0-8.32a2.31,2.31,0,1,0,2.3,2.3A2.3,2.3,0,0,0,55.14,132.75Z"/><path class="cls-1" d="M112.59,54.17a6,6,0,1,1,6-6A6,6,0,0,1,112.59,54.17Zm0-8.32a2.31,2.31,0,1,0,2.3,2.31A2.31,2.31,0,0,0,112.59,45.85Z"/><path class="cls-1" d="M213,181.74a6,6,0,1,1,6-6A6,6,0,0,1,213,181.74Zm0-8.32a2.31,2.31,0,1,0,2.3,2.3A2.3,2.3,0,0,0,213,173.42Z"/><path class="cls-1" d="M21.28,77.78a19.45,19.45,0,1,1,8.58-2A19.24,19.24,0,0,1,21.28,77.78Zm-.05-36.39a16.93,16.93,0,1,0,15.2,9.44h0a17,17,0,0,0-15.2-9.44Z"/><path class="cls-1" d="M40,97.51a1.26,1.26,0,0,1-1.13-.7L28.17,75.2a1.27,1.27,0,0,1,2.27-1.12L41.11,95.69a1.27,1.27,0,0,1-.57,1.69A1.24,1.24,0,0,1,40,97.51Z"/><path class="cls-1" d="M213.15,46.94c.64.78,1.27,1.58,1.89,2.38l-1.59,1.23q-.91-1.19-1.86-2.34Zm3.72,4.81c.59.82,1.18,1.64,1.76,2.48L217,55.37q-.85-1.23-1.74-2.43Zm3.46,5c.56.84,1.11,1.69,1.64,2.56l-1.7,1.06q-.79-1.27-1.62-2.52Zm3.22,5.16q.76,1.31,1.5,2.64l-1.75,1c-.49-.88-1-1.74-1.49-2.6Zm2.94,5.32c.42.8.83,1.61,1.24,2.43l.14.28-1.81.89-.13-.28c-.4-.8-.81-1.6-1.22-2.39Zm.86,6.3,1.82-.84c.43.92.84,1.85,1.24,2.77l-1.85.8C228.17,75.35,227.76,74.44,227.35,73.53ZM229.71,79l1.87-.75c.37.94.74,1.89,1.09,2.84l-1.88.7C230.44,80.87,230.08,80,229.71,79Zm2.08,5.6,1.9-.65c.33,1,.65,1.92,1,2.89l-1.92.6C232.43,86.51,232.12,85.57,231.79,84.62Zm1.8,5.7,1.93-.55c.28,1,.55,2,.81,2.93l-2,.5C234.13,92.24,233.87,91.28,233.59,90.32Zm1.51,5.79,2-.46c.23,1,.44,2,.65,3l-2,.41C235.54,98.05,235.32,97.08,235.1,96.11Z"/><path class="cls-1" d="M156.6,6.57c-.95-.27-1.92-.53-2.88-.78l.5-1.95c1,.26,2,.52,2.94.8Zm-5.78-1.5c-1-.22-1.95-.44-2.92-.64l.4-2,3,.65ZM145,3.87c-1-.18-2-.34-2.94-.5l.3-2c1,.15,2,.32,3,.5ZM139.06,3c-1-.13-2-.24-3-.34l.2-2c1,.1,2,.22,3,.34Zm-5.95-.61c-1-.07-2-.14-3-.19l.1-2c1,.06,2,.12,3,.2Zm-6-.3c-1,0-2,0-3,0V0c1,0,2,0,3,0Zm-6,0c-1,0-2,.06-3,.11l-.11-2c1-.06,2-.09,3-.12Zm-6,.3c-1,.08-2,.17-3,.27l-.2-2c1-.1,2-.19,3-.27ZM56.5,22.79l-1.08-1.7c.83-.53,1.7-1.06,2.58-1.6l1,1.73C58.17,21.74,57.32,22.27,56.5,22.79ZM109.26,3c-1,.13-2,.27-3,.42l-.31-2c1-.15,2-.29,3-.42ZM61.62,19.7l-1-1.75c.87-.49,1.75-1,2.65-1.48l1,1.76ZM103.36,3.87c-1,.18-2,.37-2.93.57l-.41-2c1-.2,2-.39,3-.57ZM66.88,16.81,65.94,15l2.7-1.39.91,1.8C68.65,15.89,67.76,16.35,66.88,16.81Zm5.36-2.69-.87-1.82c.91-.44,1.83-.87,2.74-1.29L75,12.84C74.05,13.25,73.14,13.68,72.24,14.12Zm25.27-9c-1,.23-1.93.47-2.89.72l-.51-1.95c1-.25,2-.5,3-.73ZM77.68,11.62l-.79-1.84c.94-.41,1.88-.8,2.8-1.18l.75,1.86Zm14.06-5c-1,.28-1.91.56-2.86.86l-.6-1.92c1-.3,1.93-.59,2.9-.87Zm-8.51,2.8-.71-1.89c1-.36,1.92-.69,2.87-1L86,8.37C85.11,8.69,84.18,9,83.23,9.38Z"/><path class="cls-1" d="M.35,113.8l2,.16c-.07,1-.14,2-.19,3l-2-.1C.21,115.83.27,114.81.35,113.8ZM0,119.88l2,.05c0,1,0,2,0,3H0C0,121.9,0,120.89,0,119.88ZM0,126l2-.06c0,1,.06,2,.11,3l-2,.1C.1,128,.06,127,0,126ZM.35,132l2-.16c.08,1,.17,2,.27,3l-2,.2C.51,134,.42,133,.35,132Zm.61,6,2-.25c.12,1,.26,2,.42,3l-2,.3C1.23,140.08,1.09,139.08,1,138.07Zm.93,6,2-.36q.25,1.47.57,2.94l-2,.4C2.26,146.07,2.07,145.08,1.89,144.08ZM3.12,150l2-.45c.22,1,.46,1.93.71,2.9l-1.94.5C3.59,152,3.35,151,3.12,150Zm1.53,5.88,1.93-.55c.28.95.57,1.91.87,2.86l-1.92.6C5.22,157.85,4.93,156.88,4.65,155.91Zm1.83,5.8,1.9-.66c.32.94.66,1.88,1,2.82l-1.89.7C7.15,163.62,6.81,162.66,6.48,161.71ZM8.6,167.4l1.86-.75c.37.92.76,1.84,1.15,2.76l-1.85.8C9.36,169.27,9,168.34,8.6,167.4ZM11,173l1.83-.84c.41.9.84,1.8,1.28,2.7l-1.81.88C11.86,174.81,11.42,173.9,11,173Zm4.46,4.53c.46.88.93,1.76,1.42,2.63l-1.76,1c-.49-.89-1-1.78-1.44-2.68Zm2.9,5.23c.51.86,1,1.71,1.55,2.56l-1.71,1.06c-.53-.86-1.06-1.73-1.57-2.6Zm3.16,5.08c.55.83,1.1,1.66,1.67,2.48l-1.65,1.14c-.58-.83-1.14-1.67-1.7-2.52Zm3.41,4.91c.59.8,1.19,1.6,1.8,2.39l-1.59,1.23q-.93-1.2-1.83-2.43Zm3.65,4.73c.63.78,1.27,1.54,1.92,2.3L29,201.06c-.66-.76-1.31-1.54-1.95-2.33Zm3.9,4.54c.67.74,1.34,1.47,2,2.19l-1.46,1.39c-.7-.73-1.39-1.48-2.07-2.23Z"/><path class="cls-1" d="M165.17,239.72a8.5,8.5,0,0,0,8.18-7.44l2-20a1.1,1.1,0,0,0-.28-.85,1.09,1.09,0,0,0-.81-.36H132.13v2.2h40.94l-1.91,18.76a6.29,6.29,0,0,1-6,5.45Z"/><path class="cls-1" d="M107.81,205.23h66.33a2.89,2.89,0,0,1,2.9,2.22,2.81,2.81,0,0,1-2.75,3.41v2.2a5,5,0,0,0,4.91-6,5.09,5.09,0,0,0-5.06-4H107.81Z"/><path class="cls-1" d="M171.93,204.61a21.74,21.74,0,0,0,.84-4.23,10.26,10.26,0,0,0-10.24-10.25,10,10,0,0,0-1.79.17,12.83,12.83,0,0,0-22.29-.44,8.16,8.16,0,0,0-4-1,8.3,8.3,0,0,0-8.18,7,9,9,0,0,0-2.92-.49c-4.56,0-8.51,4.61-9.21,8.75l2.17.37c.54-3.2,3.73-6.92,7-6.92a6.74,6.74,0,0,1,3.39.92,1.12,1.12,0,0,0,1.13,0,1.1,1.1,0,0,0,.52-1v-.13c0-.08,0-.15,0-.23a6.09,6.09,0,0,1,6.08-6.08,6,6,0,0,1,3.73,1.28,1.07,1.07,0,0,0,.93.2,1,1,0,0,0,.74-.6,10.64,10.64,0,0,1,19.3.11,1.09,1.09,0,0,0,1.28.6,8,8,0,0,1,10.14,7.76,19.83,19.83,0,0,1-.75,3.6Z"/><path class="cls-1" d="M216.94,192.88l1.31,2.4a7.5,7.5,0,0,0,3,3l2.4,1.31-2.4,1.31a7.52,7.52,0,0,0-3,3l-1.31,2.4-1.31-2.4a7.54,7.54,0,0,0-3-3l-2.4-1.31,2.4-1.31a7.52,7.52,0,0,0,3-3Z"/><path class="cls-1" d="M181.48,239.89H19.91a1.27,1.27,0,1,1,0-2.53H181.48a1.27,1.27,0,0,1,0,2.53Z"/><rect class="cls-1" x="191.34" y="10.77" width="2.01" height="5.03"/><rect class="cls-1" x="191.34" y="23.84" width="2.01" height="5.03"/><rect class="cls-1" x="183.3" y="18.81" width="5.03" height="2.01"/><rect class="cls-1" x="196.37" y="18.81" width="5.03" height="2.01"/></g></g></svg>